<svg width="80" height="80" fill="none" xmlns="http://www.w3.org/2000/svg"><path d="m8.117 72.172 4.49-16.392a31.568 31.568 0 0 1-4.225-15.815C8.391 22.523 22.584 8.333 40.027 8.333c8.465.004 16.408 3.299 22.383 9.277 5.974 5.98 9.264 13.927 9.26 22.38-.006 17.442-14.203 31.633-31.643 31.633h-.013a31.609 31.609 0 0 1-15.122-3.851l-16.775 4.4Z" fill="#fff"/><path d="M8.114 73.005a.831.831 0 0 1-.803-1.052l4.398-16.06a32.465 32.465 0 0 1-4.162-15.926C7.554 22.063 22.122 7.5 40.024 7.5c8.683.003 16.841 3.385 22.973 9.522 6.132 6.138 9.507 14.295 9.504 22.968-.007 17.902-14.577 32.467-32.477 32.467a32.559 32.559 0 0 1-15.24-3.795L8.326 72.977a.762.762 0 0 1-.212.028Z" fill="#fff"/><path d="M40.023 8.333c8.465.004 16.408 3.299 22.383 9.277 5.973 5.98 9.263 13.927 9.26 22.38-.007 17.442-14.203 31.633-31.643 31.633h-.014a31.608 31.608 0 0 1-15.121-3.851l-16.775 4.4 4.49-16.392a31.568 31.568 0 0 1-4.225-15.815C8.386 22.523 22.579 8.333 40.023 8.333Zm0-1.666c-18.36 0-33.304 14.936-33.312 33.298a33.35 33.35 0 0 0 4.102 16.037L6.504 71.733a1.668 1.668 0 0 0 2.032 2.052l16.145-4.233a33.376 33.376 0 0 0 15.328 3.74c18.374 0 33.317-14.939 33.325-33.3.004-8.899-3.458-17.265-9.746-23.559-6.292-6.295-14.66-9.763-23.565-9.766Z" fill="#CFD8DC"/><path d="M58.625 21.387c-4.966-4.97-11.568-7.709-18.595-7.71-14.506 0-26.305 11.793-26.311 26.29A26.23 26.23 0 0 0 17.74 53.96l.627.995-2.658 9.702 9.955-2.61.961.57a26.25 26.25 0 0 0 13.387 3.665h.01c14.497 0 26.295-11.795 26.3-26.294.002-7.025-2.73-13.631-7.697-18.601Z" fill="#40C351"/><path fill-rule="evenodd" clip-rule="evenodd" d="M32.117 26.742c-.592-1.317-1.215-1.344-1.78-1.367-.462-.02-.988-.018-1.515-.018-.527 0-1.383.198-2.108.99-.725.791-2.769 2.703-2.769 6.593s2.834 7.65 3.229 8.177c.395.526 5.47 8.765 13.506 11.935 6.679 2.633 8.039 2.11 9.489 1.978 1.45-.132 4.678-1.912 5.336-3.758.659-1.847.659-3.429.462-3.759-.198-.33-.725-.526-1.515-.923-.79-.397-4.678-2.308-5.403-2.572-.725-.263-1.252-.395-1.78.397-.527.79-2.042 2.572-2.504 3.098-.461.529-.923.595-1.713.199-.79-.397-3.337-1.23-6.358-3.924-2.35-2.095-3.937-4.683-4.399-5.475-.461-.79-.05-1.218.347-1.613.355-.355.79-.923 1.187-1.385.395-.462.526-.792.79-1.318.263-.529.131-.99-.067-1.385-.195-.397-1.732-4.307-2.435-5.87Z" fill="#fff"/></svg>