<svg width="674" height="354" viewBox="0 0 674 354" fill="none" xmlns="http://www.w3.org/2000/svg">
<rect width="674" height="354" fill="white"/>
<path d="M110.444 214.164C116.063 214.737 120.965 215.827 125.15 217.432C129.393 218.98 132.689 221.302 135.04 224.398C137.391 227.437 138.566 231.507 138.566 236.61C138.566 242.515 136.617 247.532 132.718 251.66C128.877 255.845 123.229 259.027 115.776 261.206C108.323 263.385 99.2927 264.474 88.686 264.474C73.034 264.474 60.908 262.209 52.308 257.68C43.7653 253.208 39.494 247.217 39.494 239.706C39.494 237.585 39.7233 235.664 40.182 233.944C40.698 232.281 41.3287 230.848 42.074 229.644L66.326 233.17C66.0393 233.571 65.724 234.173 65.38 234.976C65.0933 235.836 64.95 236.897 64.95 238.158C64.95 241.197 67.2147 243.461 71.744 244.952C76.3307 246.443 82.236 247.188 89.46 247.188C94.5627 247.188 98.92 246.815 102.532 246.07C106.201 245.382 108.982 244.35 110.874 242.974C112.823 241.598 113.798 240.021 113.798 238.244C113.798 235.664 112.537 233.973 110.014 233.17C107.549 232.367 104.682 231.794 101.414 231.45L66.842 227.924C60.478 227.293 55.2033 225.459 51.018 222.42C46.8327 219.381 44.74 215.282 44.74 210.122C44.74 206.911 45.6287 203.987 47.406 201.35C49.1833 198.655 51.2187 196.448 53.512 194.728C55.8053 192.951 57.726 191.833 59.274 191.374L72.862 198.254C71.7727 198.426 70.4827 199.114 68.992 200.318C67.5587 201.522 66.842 202.927 66.842 204.532C66.842 206.137 67.6447 207.513 69.25 208.66C70.9127 209.807 73.9227 210.581 78.28 210.982L110.444 214.164ZM119.474 133.668H142.952L133.406 168.756C131.629 175.407 128.991 181.341 125.494 186.558C121.997 191.718 117.324 195.789 111.476 198.77C105.685 201.751 98.3753 203.242 89.546 203.242C80.258 203.242 72.2027 201.809 65.38 198.942C58.6147 196.075 53.3973 192.033 49.728 186.816C46.0587 181.541 44.224 175.321 44.224 168.154C44.224 160.987 46.0873 154.681 49.814 149.234C53.598 143.787 58.7293 139.545 65.208 136.506C71.744 133.467 79.14 131.948 87.396 131.948C93.6453 131.948 99.35 132.98 104.51 135.044C109.727 137.051 113.913 139.717 117.066 143.042C120.277 146.367 121.939 150.037 122.054 154.05L117.152 155.34L119.474 133.668ZM89.374 183.72C93.158 183.72 96.4833 183.118 99.35 181.914C102.217 180.653 104.453 178.847 106.058 176.496C107.663 174.088 108.466 171.193 108.466 167.81C108.466 164.485 107.663 161.647 106.058 159.296C104.453 156.945 102.217 155.139 99.35 153.878C96.4833 152.617 93.158 151.986 89.374 151.986C85.762 151.986 82.494 152.645 79.57 153.964C76.7033 155.225 74.4387 157.06 72.776 159.468C71.1133 161.819 70.282 164.685 70.282 168.068C70.282 171.393 71.0847 174.231 72.69 176.582C74.2953 178.875 76.5313 180.653 79.398 181.914C82.2647 183.118 85.59 183.72 89.374 183.72ZM183.682 226.892C177.032 226.892 171.098 225.831 165.88 223.71C160.72 221.589 156.678 218.521 153.754 214.508C150.83 210.495 149.368 205.621 149.368 199.888C149.368 193.409 151.146 188.135 154.7 184.064C158.255 179.993 162.956 176.897 168.804 174.776C174.71 172.597 181.102 171.164 187.982 170.476C198.016 169.501 204.924 168.613 208.708 167.81C212.55 167.007 214.47 165.603 214.47 163.596C214.47 163.539 214.47 163.481 214.47 163.424C214.47 160.041 212.836 157.375 209.568 155.426C206.358 153.477 201.857 152.502 196.066 152.502C189.932 152.502 185.23 153.62 181.962 155.856C178.752 158.035 177.146 161.389 177.146 165.918H150.916C150.916 158.579 152.894 152.387 156.85 147.342C160.864 142.297 166.282 138.484 173.104 135.904C179.927 133.267 187.638 131.948 196.238 131.948C204.265 131.948 211.69 133.181 218.512 135.646C225.335 138.054 230.81 141.695 234.938 146.568C239.124 151.441 241.216 157.633 241.216 165.144C241.216 166.348 241.216 167.552 241.216 168.756C241.216 169.903 241.216 171.078 241.216 172.282V204.618C241.216 206.969 241.274 209.233 241.388 211.412C241.56 213.533 241.904 215.483 242.42 217.26C242.994 219.267 243.71 220.929 244.57 222.248C245.43 223.567 246.147 224.484 246.72 225H220.49C220.089 224.599 219.458 223.767 218.598 222.506C217.796 221.245 217.108 219.783 216.534 218.12C215.846 216.113 215.33 214.107 214.986 212.1C214.7 210.036 214.556 207.628 214.556 204.876L220.06 208.66C218.455 212.444 215.846 215.712 212.234 218.464C208.68 221.159 204.437 223.251 199.506 224.742C194.633 226.175 189.358 226.892 183.682 226.892ZM190.82 206.94C195.006 206.94 198.904 206.195 202.516 204.704C206.186 203.156 209.167 200.748 211.46 197.48C213.754 194.212 214.9 189.941 214.9 184.666V175.464L221.522 181.914C217.738 183.29 213.352 184.437 208.364 185.354C203.434 186.214 198.503 186.902 193.572 187.418C187.724 187.991 183.338 188.995 180.414 190.428C177.548 191.804 176.114 194.155 176.114 197.48C176.114 200.633 177.347 203.013 179.812 204.618C182.278 206.166 185.947 206.94 190.82 206.94ZM288.332 90.582V225H262.016V90.582H288.332ZM337.211 90.582V225H310.895V90.582H337.211ZM368.718 187.332V169.702H429.262L426.682 174.174C426.682 173.715 426.682 173.285 426.682 172.884C426.682 172.425 426.682 171.995 426.682 171.594C426.682 168.326 425.908 165.201 424.36 162.22C422.812 159.181 420.404 156.716 417.136 154.824C413.925 152.875 409.797 151.9 404.752 151.9C399.707 151.9 395.349 152.989 391.68 155.168C388.068 157.289 385.287 160.357 383.338 164.37C381.446 168.383 380.5 173.228 380.5 178.904C380.5 184.752 381.417 189.769 383.252 193.954C385.144 198.082 387.925 201.264 391.594 203.5C395.321 205.736 399.936 206.854 405.44 206.854C408.995 206.854 412.062 206.539 414.642 205.908C417.222 205.22 419.315 204.36 420.92 203.328C422.583 202.296 423.844 201.149 424.704 199.888C425.564 198.627 426.08 197.394 426.252 196.19H452.568C452.224 200.031 450.905 203.815 448.612 207.542C446.319 211.211 443.137 214.537 439.066 217.518C434.995 220.442 430.036 222.764 424.188 224.484C418.397 226.204 411.775 227.064 404.322 227.064C394.231 227.064 385.431 225.057 377.92 221.044C370.409 216.973 364.59 211.383 360.462 204.274C356.334 197.107 354.27 188.851 354.27 179.506C354.27 170.046 356.363 161.761 360.548 154.652C364.791 147.485 370.667 141.924 378.178 137.968C385.746 133.955 394.489 131.948 404.408 131.948C414.556 131.948 423.328 133.983 430.724 138.054C438.12 142.067 443.825 147.715 447.838 154.996C451.851 162.22 453.858 170.648 453.858 180.28C453.858 181.713 453.829 183.089 453.772 184.408C453.715 185.727 453.629 186.701 453.514 187.332H368.718ZM470.519 225V133.668H497.265V165.144L491.761 161.704C492.392 157.404 493.539 153.448 495.201 149.836C496.864 146.224 499.014 143.099 501.651 140.462C504.289 137.767 507.413 135.675 511.025 134.184C514.695 132.693 518.88 131.948 523.581 131.948C527.251 131.948 530.117 132.235 532.181 132.808C534.303 133.324 535.621 133.725 536.137 134.012L531.751 157.92C531.235 157.633 530.089 157.175 528.311 156.544C526.534 155.913 524.241 155.598 521.431 155.598C516.845 155.598 513.003 156.372 509.907 157.92C506.811 159.468 504.317 161.532 502.425 164.112C500.591 166.635 499.272 169.444 498.469 172.54C497.667 175.636 497.265 178.761 497.265 181.914V225H470.519ZM557.201 264.474C554.334 264.474 551.754 264.359 549.461 264.13C547.225 263.958 545.82 263.757 545.247 263.528V243.318C545.992 243.662 547.282 243.92 549.117 244.092C551.009 244.321 553.015 244.436 555.137 244.436C557.946 244.436 560.469 243.863 562.705 242.716C564.998 241.627 566.947 240.05 568.553 237.986C570.215 235.979 571.505 233.6 572.423 230.848L573.971 226.204L542.495 133.668H570.273L590.139 208.574H587.043L606.135 133.668H633.569L602.179 229.558C599.828 236.782 596.933 243.003 593.493 248.22C590.053 253.437 585.466 257.451 579.733 260.26C573.999 263.069 566.489 264.474 557.201 264.474Z" fill="#F0F0F0"/>
</svg>
