<svg width="20" height="11" viewBox="0 0 20 11" fill="none" xmlns="http://www.w3.org/2000/svg">
<path d="M9.52783 4.19224C9.58976 4.13016 9.66333 4.0809 9.74432 4.04729C9.82531 4.01368 9.91214 3.99638 9.99983 3.99638C10.0875 3.99638 10.1743 4.01368 10.2553 4.04729C10.3363 4.0809 10.4099 4.13016 10.4718 4.19224L16.5852 10.3069C16.9602 10.6821 17.4689 10.8929 17.9994 10.8931C18.5298 10.8932 19.0386 10.6826 19.4138 10.3076C19.789 9.93255 19.9999 9.42385 20 8.89337C20.0001 8.3629 19.7895 7.85409 19.4145 7.4789L13.2998 1.36425C12.4238 0.490606 11.237 1.04497e-07 9.99983 1.19251e-07C8.76261 1.34005e-07 7.57588 0.490606 6.69983 1.36425L0.585161 7.4789C0.210146 7.85409 -0.000465293 8.3629 -0.000341309 8.89337C-0.000215418 9.42385 0.210638 9.93255 0.585831 10.3076C0.961023 10.6826 1.46982 10.8932 2.0003 10.8931C2.53078 10.8929 3.03948 10.6821 3.4145 10.3069L9.52783 4.19224Z" fill="white"/>
</svg>
