<svg width="20" height="11" viewBox="0 0 20 11" fill="none" xmlns="http://www.w3.org/2000/svg">
<path d="M10.4722 6.80776C10.4102 6.86984 10.3367 6.9191 10.2557 6.95271C10.1747 6.98632 10.0879 7.00362 10.0002 7.00362C9.91248 7.00362 9.82565 6.98632 9.74466 6.95271C9.66367 6.9191 9.5901 6.86984 9.52817 6.80776L3.41484 0.693101C3.03982 0.317909 2.53112 0.107059 2.00064 0.106934C1.47016 0.106809 0.961361 0.317419 0.586169 0.692435C0.210976 1.06745 0.000124672 1.57615 -3.33107e-07 2.10663C-0.000125338 2.6371 0.210486 3.1459 0.585502 3.5211L6.70017 9.63575C7.57622 10.5094 8.76295 11 10.0002 11C11.2374 11 12.4241 10.5094 13.3002 9.63575L19.4148 3.5211C19.7899 3.1459 20.0005 2.6371 20.0003 2.10663C20.0002 1.57615 19.7894 1.06745 19.4142 0.692435C19.039 0.317418 18.5302 0.106808 17.9997 0.106933C17.4692 0.107058 16.9605 0.317909 16.5855 0.6931L10.4722 6.80776Z" fill="#0074BD"/>
</svg>
