<svg width="172" height="144" viewBox="0 0 172 144" fill="none" xmlns="http://www.w3.org/2000/svg">
<path d="M123.26 84.5186L123.362 82.5212L123.309 82.5185L123.256 82.5186L123.26 84.5186ZM95.2691 121.297L93.9011 122.756L93.9342 122.787L93.9687 122.816L95.2691 121.297ZM143.65 93.4406L141.861 92.5467L141.847 92.5745L141.834 92.6027L143.65 93.4406ZM84.2434 44.2737L84.4802 46.2596H84.4802L84.2434 44.2737ZM35.9596 86.0018L34.0954 86.7262L34.1068 86.7555L34.1191 86.7845L35.9596 86.0018ZM70.0334 80.4849L68.5563 79.1365L68.546 79.1478L68.5358 79.1593L70.0334 80.4849ZM73.4275 29.6987L75.1321 28.6525L75.0879 28.5807L75.0379 28.5128L73.4275 29.6987ZM0 18.1276L22.8222 21.6601L14.4704 0.129188L0 18.1276ZM166.804 143.016C170.759 135.845 173.371 124.752 171.132 113.955C168.865 103.018 161.641 92.5187 146.235 86.8133L144.846 90.5644C158.937 95.7831 165.224 105.157 167.216 114.766C169.236 124.515 166.856 134.64 163.301 141.084L166.804 143.016ZM146.235 86.8133C139.991 84.5009 132.435 82.9868 123.362 82.5212L123.157 86.5159C131.906 86.9649 139.051 88.4185 144.846 90.5644L146.235 86.8133ZM123.256 82.5186C109.563 82.5434 97.9515 88.2053 91.8167 96.0909C88.7386 100.048 87.0001 104.628 87.2088 109.338C87.4186 114.075 89.5883 118.712 93.9011 122.756L96.637 119.838C92.9768 116.406 91.3623 112.714 91.2049 109.161C91.0463 105.581 92.3574 101.91 94.9738 98.5471C100.228 91.7933 110.585 86.5416 123.263 86.5186L123.256 82.5186ZM93.9687 122.816C98.6507 126.823 106.881 130.053 116.402 126.887C125.886 123.734 136.188 114.388 145.466 94.2785L141.834 92.6027C132.785 112.216 123.142 120.431 115.14 123.092C107.174 125.74 100.378 123.036 96.5695 119.777L93.9687 122.816ZM145.44 94.3345C146.232 92.7486 146.908 91.0516 147.453 89.275L143.628 88.1027C143.146 89.676 142.551 91.1665 141.861 92.5467L145.44 94.3345ZM147.453 89.275C150.665 78.7936 149.374 65.2164 139.731 55.1344C130.078 45.0421 112.486 38.8922 84.0066 42.2877L84.4802 46.2596C112.296 42.9431 128.396 49.0708 136.84 57.8992C145.294 66.7378 146.503 78.7243 143.628 88.1027L147.453 89.275ZM84.0066 42.2877C82.3212 42.4887 80.6399 42.7357 78.9691 43.027L79.656 46.9675C81.2566 46.6885 82.8668 46.452 84.4802 46.2596L84.0066 42.2877ZM78.9691 43.027C65.2736 45.4142 52.1368 50.7999 43.3489 58.2719C34.5258 65.774 29.8101 75.6981 34.0954 86.7262L37.8238 85.2774C34.3759 76.4042 37.8812 68.1714 45.94 61.3192C54.0342 54.437 66.4403 49.2711 79.656 46.9675L78.9691 43.027ZM34.1191 86.7845C35.798 90.732 40.1855 95.2613 46.872 95.7575C53.5705 96.2546 61.9265 92.6613 71.531 81.8104L68.5358 79.1593C59.3167 89.5747 52.079 92.1329 47.168 91.7685C42.245 91.4032 39.0074 88.0578 37.8 85.219L34.1191 86.7845ZM71.5105 81.8332C77.308 75.482 84.1751 60.9533 81.2818 44.6478L77.3433 45.3467C79.9902 60.2638 73.636 73.5716 68.5563 79.1365L71.5105 81.8332ZM81.2818 44.6478C80.3526 39.4114 78.4181 34.0064 75.1321 28.6525L71.723 30.7449C74.7415 35.663 76.4999 40.5939 77.3433 45.3467L81.2818 44.6478ZM75.0379 28.5128C67.2191 17.8958 46.0129 2.1779 16.2961 9.67725L17.2749 13.5557C45.0407 6.54865 64.7101 21.2343 71.8171 30.8847L75.0379 28.5128Z" fill="#0074BD"/>
</svg>
