<svg width="75" height="25" viewBox="0 0 75 25" fill="none" xmlns="http://www.w3.org/2000/svg">
<path id="benefit" d="M63.6 7.1C63 7.2 62.4 7.2 61.8 7.2C61.5 7.2 61.5 7.1 61.5 7.5C61.5 7.6 61.5 7.7 61.6 7.6H62.2C62.3 7.6 62.4 7.6 62.4 7.8V17.9C62.4 18 62.4 18.1 62.2 18.1H60.4H60.2V18.5C60.2 18.6 60.3 18.5 60.4 18.5H66.7C67 18.5 66.9 18.6 67 18.2C67 18.1 67 18 66.8 18H65C64.7 18 64.7 18 64.7 17.7V6.7V6.4C64.3 6.9 64 7 63.6 7.1ZM71 7.8C71 7.6 71 7.6 71.2 7.6H74.6H74.8C74.9 7.5 74.8 7.3 74.8 7.2C74.8 7.1 74.7 7.1 74.6 7.1H71.2C70.9 7.1 71 7.1 71 6.9V3.5C71 3.4 71 3.3 70.9 3.3C70.8 3.3 70.7 3.3 70.6 3.5C70.5 4.1 70.4 4.6 70.1 5.1C69.7 6.1 68.9 6.8 67.8 7C67.3 7.1 66.9 7.1 66.4 7.1C66.2 7.1 66.2 7.2 66.2 7.4C66.2 7.5 66.2 7.6 66.4 7.6H68.4C68.7 7.6 68.6 7.6 68.6 7.8V16.4C68.6 17.5 69.2 18.3 70.2 18.6C70.8 18.8 71.4 18.8 72 18.8C73.2 18.7 74.2 18.1 74.6 16.9C74.7 16.7 74.7 16.7 74.5 16.7C74.3 16.6 74.3 16.7 74.2 16.9C74.2 17 74.1 17.2 74 17.3C73.6 18 72.9 18.5 72 18.4C71.3 18.4 70.9 18.1 70.8 17.4V17V12.6C71 11 71 9.5 71 7.8ZM45.8 11.2H48C48.2 11.2 48.3 11.2 48.3 10.9V10.3C48.3 9.7 48.2 9 48 8.5C47.7 7.7 47.1 7.1 46.2 7.1C45.3 7 44.6 7.3 44.1 8C43.9 8.3 43.8 8.5 43.7 8.8C43.5 9.5 43.5 10.3 43.5 11C43.5 11.1 43.6 11.1 43.7 11.1C44.4 11.2 45.1 11.2 45.8 11.2ZM47.2 11.7H43.7C43.5 11.7 43.5 11.8 43.5 11.9V15.2C43.5 15.8 43.6 16.5 43.9 17.1C44.3 17.9 44.9 18.3 45.8 18.4C48.2 18.7 50.1 17.2 50.6 14.9C50.7 14.6 50.8 14.6 51 14.6C51.1 14.6 51.1 14.7 51 14.8C50.9 15.3 50.7 15.8 50.5 16.3C49.5 18.1 47.7 19 45.7 18.8C44.4 18.7 43.3 18.2 42.4 17.2C41.6 16.4 41.2 15.4 40.9 14.3C40.4 12.2 40.9 10.2 42.3 8.4C43 7.6 43.8 6.9 44.8 6.6C46 6.2 47.2 6.5 48.3 7.2C49.6 8.1 50.4 9.3 50.8 10.8C50.8 10.9 50.8 11.1 50.9 11.2C50.9 11.4 50.8 11.5 50.7 11.5H50.5C49.5 11.7 48.3 11.7 47.2 11.7ZM20.6 11.2H22.8C22.9 11.2 23.1 11.2 23.1 11C23.1 10.3 23.1 9.7 23 9.1C22.9 8.6 22.7 8 22.3 7.6C21.7 7 20.9 7 20.2 7.2C19.4 7.3 18.9 7.9 18.7 8.8C18.4 9.6 18.5 10.4 18.5 11.2C18.5 11.3 18.6 11.3 18.7 11.3C19.1 11.3 19.8 11.2 20.6 11.2ZM21.9 11.7H18.5C18.3 11.7 18.3 11.8 18.3 11.9V15.1C18.3 15.7 18.4 16.3 18.7 16.9C19.1 17.7 19.7 18.2 20.6 18.3C23 18.6 25 17.1 25.4 14.8C25.4 14.7 25.4 14.6 25.5 14.6H25.9C26 14.6 25.9 14.7 25.9 14.7C25.5 16.7 24.2 18.3 22.2 18.7C20.4 19.1 18.8 18.7 17.5 17.5C16.5 16.6 16 15.5 15.8 14.2C15.4 12 16 10 17.5 8.2C18.1 7.5 18.8 7 19.7 6.8C20.8 6.5 21.9 6.6 22.8 7.2C24.3 8.1 25.2 9.4 25.6 11.1C25.7 11.6 25.7 11.7 25.1 11.7C24.1 11.7 22.9 11.7 21.9 11.7ZM53.1 7.2C52.8 7.2 52.9 7.4 52.9 7.5C52.9 7.7 53 7.7 53.1 7.7H55.3C55.4 7.7 55.5 7.7 55.4 7.9C55.3 8.2 55.2 8.4 55.1 8.7C54.3 11.3 53.6 13.9 52.9 16.6C52.5 18.2 52 19.9 51.4 21.5C51.1 22.2 50.8 22.9 50.3 23.4C50 23.7 49.6 23.9 49.2 23.9C49 23.9 48.9 23.9 48.8 23.7C48.7 23.5 48.9 23.4 49 23.3C49.4 23 49.4 22.3 49.1 21.9C48.8 21.5 48.1 21.4 47.6 21.6C47.1 21.8 46.8 22.4 46.9 22.9C47 23.5 47.6 24.1 48.2 24.2C49 24.3 49.8 24.2 50.5 23.7C51.1 23.3 51.5 22.8 51.9 22.3C52.9 20.9 53.7 19.4 54.3 17.7C55.5 14.5 56.5 11.1 57.6 7.9C57.6 7.8 57.7 7.7 57.9 7.7H60H60.2V7.3C60.2 7.2 60.1 7.3 60 7.3H58C57.9 7.3 57.8 7.3 57.9 7.2C58.3 6 58.6 4.8 59.1 3.7C59.6 2.8 60 1.8 60.8 1.1C61 0.9 61.3 0.6 61.6 0.5C61.8 0.4 62 0.4 62.2 0.4C62.4 0.4 62.4 0.6 62.3 0.7L62.2 0.8C61.7 1.4 62 2.3 62.6 2.7C63 3 63.7 3 64.1 2.7C64.5 2.4 64.7 1.8 64.5 1.2C64.3 0.5 63.6 0.1 62.8 0C62.1 0 61.4 0.2 60.8 0.5C59.7 1.1 58.8 1.9 58 2.9C56.9 4.2 56.2 5.6 55.6 7.2C55.5 7.3 55.5 7.4 55.3 7.4H54.2C53.9 7.2 53.5 7.2 53.1 7.2ZM29.2 7.2H26.6C26.3 7.2 26.3 7.2 26.3 7.5C26.3 7.6 26.3 7.7 26.5 7.7H28.3C28.4 7.7 28.5 7.7 28.5 7.9V18C28.5 18.1 28.5 18.2 28.3 18.2H26.5C26.3 18.2 26.3 18.3 26.3 18.4C26.3 18.6 26.3 18.6 26.5 18.6H32.5H32.7C32.8 18.6 32.8 18.6 32.8 18.5V18.4C32.8 18.3 32.8 18.2 32.6 18.2H30.9C30.8 18.2 30.7 18.2 30.7 18V10.5V10.3C31 9.7 31.4 9 31.9 8.5C32.6 7.8 33.4 7.3 34.4 7.2C35.3 7.1 35.9 7.5 36.1 8.3C36.2 8.5 36.2 8.8 36.2 9.1V18.1C36.2 18.2 36.2 18.3 36 18.3H34.2H34V18.7C34 18.8 34.1 18.7 34.2 18.7H40.5H40.6C40.7 18.7 40.7 18.7 40.7 18.6V18.4C40.7 18.3 40.7 18.2 40.5 18.2H38.7C38.5 18.2 38.5 18.2 38.5 18V9.9V9.3C38.4 8.3 37.9 7.6 37 7.2C36.5 7 35.9 6.9 35.4 6.8C34.3 6.7 33.4 6.9 32.5 7.6C31.8 8.1 31.3 8.7 30.9 9.4C30.9 9.5 30.9 9.5 30.8 9.6V6.7C30.2 7.1 30 7.2 29.2 7.2ZM11.2 12.7C11.2 12.1 11.2 11.2 11.1 10.4C11 9.7 10.9 9 10.6 8.3C10.3 7.6 9.8 7.2 9.1 7.1C8.2 6.9 7.3 7.1 6.5 7.6C5.2 8.5 4.5 9.7 4.5 11.3C4.5 12.5 4.4 13.7 4.5 15C4.6 16 4.9 16.8 5.6 17.4C6.5 18.3 7.6 18.5 8.8 18.4C9.8 18.3 10.4 17.7 10.7 16.8C10.8 16.5 10.9 16.2 10.9 15.9C11.2 14.9 11.2 13.9 11.2 12.7ZM4.5 0V9.4C4.6 9.4 4.6 9.3 4.6 9.2C5.1 8 5.9 7.2 7.2 6.8C8.3 6.3 9.3 6.5 10.4 7C11.9 7.7 12.9 9 13.5 10.6C14.3 12.9 13.9 15 12.4 16.9C11.2 18.3 9.7 19 7.8 18.8C6.4 18.7 5.3 17.9 4.6 16.7C4.6 16.6 4.5 16.6 4.5 16.5C4.4 16.6 4.5 16.6 4.5 16.7V18.3C4.5 18.4 4.5 18.5 4.3 18.5H0.3C0.2 18.5 0.1 18.5 0.1 18.3V18.2C0.1 18.1 0.1 18.1 0.2 18.1H1.8C1.9 18.1 2 18.1 2 17.9V1.3C2 1.2 2 1.1 1.8 1.1H0.2C0.1 1.1 0 1.1 0 0.9C0 0.7 -1.49012e-08 0.7 0.2 0.7H2.7C3.6 0.6 4.1 0.4 4.5 0Z" fill="#0074BD"/>
</svg>
