<svg width="41" height="40" viewBox="0 0 41 40" fill="none" xmlns="http://www.w3.org/2000/svg">
<path id="HP" d="M32.2 13.8H29.1L24.5 26.1H27.7L32.2 13.8ZM20.1 40.1H19.5L23.6 28.8H29.2C30.2 28.8 31.3 28 31.6 27.1L36 14.9C36.7 12.9 35.6 11.3 33.5 11.3H25.6L19 29.4L15.5 39.4C6.6 37.3 0 29.4 0 19.9C0 10.7 6.2 2.9 14.7 0.5L10.9 11.1L4.5 28.7H8.7L14.1 13.8H17.3L11.9 28.8H16.1L21.1 14.9C21.8 12.9 20.7 11.3 18.6 11.3H15.1L19.1 0H20C31.1 0 40.1 9 40.1 20.1C40.1 31.2 31.2 40.1 20.1 40.1Z" fill="#0074BD"/>
</svg>
