<svg width="75" height="25" viewBox="0 0 75 25" fill="none" xmlns="http://www.w3.org/2000/svg">
<path id="shopify" d="M71.3 5.9C71.3 5.9 69.1 11.5 68.1 14.6H68C67.9 13.6 67.1 5.9 67.1 5.9H63.4L65.5 17.5C65.6 17.8 65.5 17.9 65.4 18.1C65 18.9 64.3 19.7 63.5 20.2C62.8 20.7 62.1 21 61.5 21.2L62.5 24.2C63.2 24 64.7 23.5 65.9 22.3C67.5 20.8 69 18.5 70.5 15.2L74.8 5.9H71.3ZM62.8 5.8H60.3L60.4 5.2C60.6 4 61.3 2.9 62.5 2.9C63.1 2.9 63.6 3.1 63.6 3.1L64.3 0.3C64.3 0.3 63.7 0 62.4 0C61.1 0 59.9 0.4 59 1.2C57.8 2.2 57.2 3.7 57 5.2L56.9 5.8H55.3L54.8 8.5H56.4L54.5 18.5H58L59.9 8.5H62.3L62.8 5.8ZM47.8 18.5H51.3L53.7 5.9H50.2L47.8 18.5ZM52.7 0.5C51.6 0.5 50.7 1.4 50.7 2.5C50.7 3.5 51.4 4.3 52.4 4.3H52.5C53.6 4.3 54.5 3.6 54.6 2.3C54.6 1.3 53.8 0.5 52.7 0.5ZM40.6 16.1C42.6 16.1 43.9 12.9 43.9 10.6C43.9 9.7 43.6 8.7 42.5 8.7C41.3 8.7 40.1 10.2 39.7 12.4L39.1 15.7C39.1 15.6 39.7 16.1 40.6 16.1ZM44.1 5.6C46.7 5.6 47.7 7.7 47.7 10.2C47.7 14.5 45 18.8 40.8 18.8C39.5 18.8 38.7 18.3 38.7 18.3H38.6L37.6 23.5H34.1L36.6 10.5C36.9 9 37.2 7.1 37.3 5.8H40.4L40.2 7.6H40.3C40.2 7.7 41.6 5.6 44.1 5.6ZM28.3 16C30.2 16 31.2 12.7 31.2 10.5C31.2 9.5 30.8 8.4 29.5 8.4C27.6 8.4 26.5 11.7 26.5 13.7C26.6 15 27.1 16 28.3 16ZM30.1 5.6C33.4 5.6 34.9 8 34.9 10.5C34.9 14.9 32.1 18.7 27.8 18.7C24.6 18.7 22.9 16.5 22.9 13.8C23 9.5 25.8 5.6 30.1 5.6ZM19.1 5.6C17.5 5.6 16.3 6.3 15.4 7.5H15.3L16.7 0.4H13.2L9.8 18.6H13.3L14.5 12.3C15 10 16.2 8.5 17.3 8.5C18.1 8.5 18.4 9 18.4 9.8C18.4 10.3 18.3 10.9 18.2 11.4L16.9 18.5H20.4L21.8 11.1C22 10.3 22.1 9.4 22.1 8.8C22.1 6.8 21 5.6 19.1 5.6ZM6.4 11C7.8 11.8 8.9 12.9 8.9 14.4C8.9 17.2 6.6 18.8 3.5 18.8C1.3 18.8 0 17.9 0 17.9L0.9 15.4C0.9 15.4 2.3 16.2 3.8 16.2C4.8 16.2 5.3 15.7 5.3 15C5.3 14.4 4.9 13.9 3.8 13.3C2.5 12.5 1.5 11.5 1.5 10.1C1.5 7.6 3.6 5.9 6.7 5.9C8.9 5.9 9.7 6.5 9.7 6.5L9 9C9 9 8 8.5 6.8 8.5C5.8 8.5 5.2 9 5.2 9.7C5 10.1 5.5 10.5 6.4 11Z" fill="#0074BD"/>
</svg>
