<svg width="129" height="24" viewBox="0 0 129 24" fill="none" xmlns="http://www.w3.org/2000/svg">
<path id="SeatGeek" d="M2.4 13.7H0V11.1H3.7C4.5 11.1 5.1 11.8 5.1 12.5V17.3H2.3L2.4 13.7ZM8 16.3L5.4 2.6C5.4 2.6 9.3 0 15.7 0C22.1 0 26 2.6 26 2.6L23.5 16.3H8ZM15.7 24C9.4 24 5.4 22.3 5.4 22.3V19.4C5.4 19.4 9.4 21.2 15.7 21.2C22 21.2 26 19.4 26 19.4V22.3C26 22.3 21.9 24 15.7 24ZM29 17.4H26.2V12.6C26.2 11.8 26.9 11.2 27.6 11.2H31.3V13.8H28.9L29 17.4ZM45 11C45.8 11.3 48.3 12.3 48.3 15.3C48.3 18.7 45.4 19.9 42.3 19.9C39.5 19.9 37.5 18.7 37.5 18.7V15.8C37.5 15.8 39.9 17.4 42.3 17.4C44.7 17.4 45.2 16.5 45.2 15.7C45.2 14.8 44.7 14.5 44.1 14.1C43.3 13.7 42 13.2 40.6 12.7C39.1 12.1 37.4 11.3 37.4 8.6C37.4 5.5 40.2 4.1 42.9 4.1C45.7 4.1 47.4 5.1 47.4 5.1V7.9C47.4 7.9 45.2 6.6 42.7 6.6C41 6.6 40.3 7.3 40.2 8.2C40.1 9.2 40.8 9.5 41.4 9.8C42 10 44.3 10.8 45 11ZM57.3 12.4C57.2 11.3 56.6 10.2 55 10.2C53.2 10.2 52.4 11.3 52.2 12.4H57.3ZM56 17.4C58.1 17.4 59.5 16.3 59.5 16.3V18.9C58.6 19.4 57.5 19.9 55.7 19.9C49.7 19.9 49.4 15.2 49.4 13.8C49.4 10.7 51.4 7.7 54.9 7.7C59.9 7.7 59.9 12.3 59.9 13.1V14.6H52.1C52.6 16.1 53.7 17.4 56 17.4ZM67.4 14.8C66.5 14.7 63.9 14.5 63.9 16.2C63.9 18.2 67.4 17.5 67.4 17.5V14.8ZM61 16.4C61 13.5 63.5 12.6 67.5 12.8C67.5 11.5 67.4 10.2 65.2 10.2C63.5 10.2 61.8 11.3 61.8 11.3V8.6C61.8 8.6 63.7 7.6 65.9 7.6C67.3 7.6 70.3 7.8 70.3 11.9V19.3C70.3 19.3 68 19.7 66.3 19.7C64.1 19.9 61 19.3 61 16.4ZM76.6 17.4C77.6 17.4 78.6 16.7 78.6 16.7V19.2C78.6 19.2 77.7 19.8 75.8 19.8C71.9 19.8 72 16.9 72 15.2V5.1H74.9V8H78.1V10.5H74.9V15.7C74.8 16.8 75.2 17.4 76.6 17.4ZM87.1 19.9C82.4 19.9 79.2 17 79.2 12C79.2 6.9 83 3.9 87.1 3.9C90.1 3.9 91.6 4.9 91.6 4.9V7.8C90.5 7 89.3 6.5 87.2 6.5C84.3 6.5 82.4 9.1 82.4 12C82.4 14.8 84 17.2 87.2 17.2C88.3 17.2 89.2 16.9 89.2 16.9V13.6H86.2V11H90.8C91.6 11 92.2 11.7 92.2 12.4V18.9C91.9 18.9 90.3 19.9 87.1 19.9ZM101.4 12.4C101.3 11.3 100.7 10.2 99.1 10.2C97.3 10.2 96.5 11.3 96.3 12.4H101.4ZM100 17.4C102.1 17.4 103.5 16.3 103.5 16.3V18.9C102.6 19.4 101.5 19.9 99.7 19.9C93.7 19.9 93.4 15.2 93.4 13.8C93.4 10.7 95.4 7.7 98.9 7.7C103.9 7.7 103.9 12.3 103.9 13.1V14.6H96.2C96.6 16.1 97.8 17.4 100 17.4ZM113.3 12.4C113.2 11.3 112.6 10.2 111 10.2C109.2 10.2 108.4 11.3 108.2 12.4H113.3ZM111.9 17.4C114 17.4 115.4 16.3 115.4 16.3V18.9C114.5 19.4 113.4 19.9 111.6 19.9C105.6 19.9 105.3 15.2 105.3 13.8C105.3 10.7 107.3 7.7 110.8 7.7C115.8 7.7 115.8 12.3 115.8 13.1V14.6H108C108.5 16.1 109.7 17.4 111.9 17.4ZM128.1 19.6H124.8L120.5 13.7V19.6H117.5V4.1H120.4V13L124.6 8.1H127.9L123.3 13.3L128.1 19.6Z" fill="#0074BD"/>
</svg>
