<svg width="47" height="32" viewBox="0 0 47 32" fill="none" xmlns="http://www.w3.org/2000/svg">
<g id="Group 9">
<g id="Group_1466">
<g id="Group_1465">
<g id="Group_1464">
<path id="Path_101253" d="M43.2841 31.6659C41.0941 31.6659 39.7941 30.5459 39.6941 28.9259H41.7941C41.7941 29.4659 42.0941 30.1859 43.3941 30.2259C44.2941 30.2259 44.7941 29.6859 44.7941 29.2859C44.6941 28.6559 43.8941 28.6159 43.1041 28.4759C42.3841 28.3959 41.6841 28.2159 41.0041 27.9359C40.3041 27.5459 39.8841 26.8059 39.9041 26.0059C39.9041 24.5659 41.1041 23.4459 43.1941 23.4459C45.1941 23.4459 46.4841 24.4759 46.5841 26.0459H44.5941C44.5941 25.6459 44.4941 24.9659 43.2941 24.9659C42.4941 24.9659 41.9941 25.0959 41.8941 25.6859C41.8941 26.4959 43.5841 26.4559 44.8841 26.7659C46.0841 27.0859 46.8841 27.8459 46.8841 28.9259C46.8741 30.8959 45.2841 31.6659 43.2841 31.6659Z" fill="#0074BD"/>
</g>
</g>
</g>
<g id="Group_1467">
<path id="Path_101254" d="M5.08594 18.3989L11.9659 14.3989L15.6559 20.7289H6.37594" fill="#0074BD"/>
</g>
<g id="Group_1468">
<g id="Path_101255">
<path id="Vector" d="M20.456 23.4249H18.666V31.4149H20.456V23.4249Z" fill="#0074BD"/>
</g>
</g>
<g id="Group_1471">
<g id="Group_1470">
<g id="Group_1469">
<path id="Path_101256" d="M1.89 27.543C1.92 28.793 2.93 29.803 4.18 29.833C5.44 29.843 6.46 28.833 6.48 27.573C6.48 27.563 6.48 27.553 6.48 27.543C6.47 26.283 5.45 25.263 4.18 25.253C2.94 25.303 1.94 26.303 1.89 27.543ZM4.09 31.673C1.83 31.643 0.01 29.803 0 27.543C0.01 25.293 1.83 23.473 4.09 23.453C4.94 23.433 5.78 23.683 6.48 24.173V23.543H8.48V31.493H6.48V31.003C5.77 31.463 4.94 31.703 4.09 31.673Z" fill="#0074BD"/>
</g>
</g>
</g>
<g id="Group_1472">
<path id="Path_101257" d="M30.727 20.74L21.157 4.04L28.037 0L40.007 20.74" fill="#0074BD"/>
</g>
<g id="Group_1475">
<g id="Group_1474">
<g id="Group_1473">
<path id="Path_101258" d="M11.074 27.542C11.064 28.802 12.084 29.822 13.344 29.832C13.354 29.832 13.364 29.832 13.374 29.832C14.624 29.802 15.634 28.802 15.664 27.542C15.614 26.292 14.614 25.292 13.364 25.252C12.104 25.262 11.084 26.282 11.074 27.542ZM13.264 31.672C11.014 31.672 9.17399 29.852 9.17399 27.592C9.17399 27.572 9.17399 27.552 9.17399 27.542C9.15399 25.312 10.944 23.482 13.174 23.452C13.204 23.452 13.234 23.452 13.264 23.452C14.114 23.432 14.954 23.682 15.654 24.172V20.802H17.644V31.482H15.664V30.992C14.944 31.452 14.114 31.692 13.264 31.672Z" fill="#0074BD"/>
</g>
</g>
</g>
<g id="Group_1476">
<path id="Path_101259" d="M13.166 11.269L20.146 7.31897L27.826 20.739H20.546V22.719H18.556V20.739" fill="#0074BD"/>
</g>
<g id="Group_1482">
<g id="Group_1481">
<g id="Group_1477">
<path id="Path_101260" d="M45.5901 22.7719C45.0501 22.7519 44.6101 22.3219 44.5901 21.7819C44.6101 21.2419 45.0501 20.8119 45.5901 20.7919C46.1301 20.7719 46.5701 21.2019 46.5901 21.7319C46.5901 21.7519 46.5901 21.7619 46.5901 21.7819C46.6001 22.3219 46.1801 22.7619 45.6401 22.7719C45.6201 22.7819 45.6001 22.7819 45.5901 22.7719ZM45.5901 20.9419C45.1501 20.9419 44.7901 21.3019 44.7901 21.7519C44.7901 21.7619 44.7901 21.7819 44.7901 21.7919C44.7601 22.2319 45.1001 22.6119 45.5401 22.6419C45.5601 22.6419 45.5701 22.6419 45.5901 22.6419C46.0301 22.6419 46.3901 22.2719 46.3901 21.8319C46.3901 21.8219 46.3901 21.8019 46.3901 21.7919C46.4201 21.3519 46.0801 20.9719 45.6401 20.9419C45.6201 20.9419 45.6001 20.9419 45.5901 20.9419Z" fill="#0074BD"/>
</g>
<g id="Group_1478">
<path id="Path_101261" d="M45.7941 22.3329L45.5941 21.8829H45.3941V22.3329H45.2441V21.2529H45.6941C45.8541 21.2829 45.9741 21.4029 45.9941 21.5729C46.0041 21.7129 45.9241 21.8329 45.7941 21.8829L45.9941 22.3329M45.5841 21.3929H45.3841V21.7529H45.5841C45.7841 21.7529 45.7841 21.7129 45.7841 21.5729C45.7941 21.4729 45.7941 21.3929 45.5841 21.3929Z" fill="#0074BD"/>
</g>
<g id="Group_1479">
<path id="Path_101262" d="M32.4112 27.543C32.4012 28.803 33.4212 29.823 34.6812 29.833C34.6912 29.833 34.7012 29.833 34.7112 29.833C35.9612 29.803 36.9712 28.793 37.0012 27.543C36.9612 26.293 35.9512 25.293 34.7112 25.253C33.4412 25.263 32.4212 26.283 32.4112 27.543ZM34.6012 31.673C32.3512 31.673 30.5212 29.853 30.5112 27.593C30.5112 27.573 30.5112 27.553 30.5112 27.543C30.4912 25.313 32.2812 23.483 34.5112 23.453C34.5412 23.453 34.5712 23.453 34.5912 23.453C35.4412 23.433 36.2812 23.683 36.9812 24.173V23.543H38.8812V31.493H36.9812V31.003C36.2812 31.453 35.4512 31.693 34.6012 31.673Z" fill="#0074BD"/>
</g>
<g id="Group_1480">
<path id="Path_101263" d="M23.2411 27.5429C23.2711 28.7929 24.2811 29.8029 25.5411 29.8329C26.8011 29.8429 27.8311 28.8329 27.8311 27.5729C27.8311 27.5629 27.8311 27.5529 27.8311 27.5429C27.8211 26.2829 26.8011 25.2629 25.5311 25.2529C24.2911 25.2929 23.2811 26.2929 23.2411 27.5429ZM27.8311 20.8129H29.8211V31.4929H27.8311V31.0029C27.1611 31.4729 26.3511 31.7029 25.5311 31.6829C23.2311 31.6929 21.3611 29.8529 21.3411 27.5529C21.3611 25.2729 23.2311 23.4429 25.5111 23.4629C25.5211 23.4629 25.5211 23.4629 25.5311 23.4629C26.3611 23.4329 27.1711 23.6829 27.8311 24.1829V20.8129Z" fill="#0074BD"/>
</g>
</g>
</g>
</g>
</svg>
