<svg width="88" height="16" viewBox="0 0 88 16" fill="none" xmlns="http://www.w3.org/2000/svg">
<path id="L_x27_Oreal" d="M1.7 13.4V2.1H0V14.8H11.4V13.4H1.7ZM8.2 6.7H9.5L11.9 2.2H10L8.2 6.7ZM21.3 14.3C24.8 14.3 28 11.5 28 8C28 4.5 25.3 1.5 21.5 1.5C17.7 1.5 14.9 4.5 14.9 8C14.8 11.5 17.8 14.3 21.3 14.3ZM21.4 0C26.5 0 30.1 3.6 30.1 8C30.1 12.6 26.3 15.9 21.4 15.9C16.7 15.9 12.8 12.7 12.8 8C12.7 3.6 16.2 0 21.4 0ZM40 8.1C40.9 8.1 41.9 7.9 42.4 7.1C42.7 6.6 42.8 5.8 42.6 5.3C42.3 4.5 41.5 3.8 40.1 3.8H34V8.1H40ZM41.6 9.6C42.7 11.3 45.5 14.8 45.5 14.8H43.2L39.4 9.5H34.2V14.8H32.4V2.1H40.4C43.1 2.1 44.6 3.5 44.8 5.8C44.7 6.7 44.5 8.8 41.6 9.6ZM70.6 10L67.6 3.9L64.6 10H70.6ZM68.8 2.1L75.3 14.8H73.2L71.5 11.5H63.8L62.2 14.8H60L66.5 2.1H68.8ZM76.3 2.1V14.8H87.7V13.4H78V2.1H76.3ZM53.6 0.1L52.1 1.8L56.9 0.1H53.6ZM47.7 2.1H59V3.5H49.6V7.5H56.7V8.9H49.6V13.3H59V14.7H47.7V2.1Z" fill="#0074BD"/>
</svg>
