<svg width="171" height="24" viewBox="0 0 171 24" fill="none" xmlns="http://www.w3.org/2000/svg">
<path id="times" d="M76.3152 4.5C76.3152 3.5 75.9152 3 75.3152 3C74.4152 3 74.2152 4.2 74.2152 4.2C74.2152 4.2 74.0152 3.2 74.9152 2.3C75.4152 1.8 76.2152 1.1 77.6152 1.4C79.0152 1.7 79.4152 2.8 79.4152 3.8V17C79.4152 17 79.9152 17.1 80.3152 17.1L81.1152 17.3V1.5H81.3152V3.6L84.1152 1.3L86.3152 3.2L87.3152 2.4L87.4152 2.5L86.4152 3.4V15.7C86.4152 16.5 86.2152 17.3 85.5152 17.8C83.8152 18.8 81.8152 17.6 80.0152 17.4C78.7152 17.2 76.6152 16.9 76.0152 18.2C75.8152 18.6 75.8152 19.2 76.4152 19.6C77.6152 20.4 83.1152 18.2 85.0152 19.1C86.7152 19.9 86.7152 21.1 86.4152 22C86.0152 23.6 83.9152 23.9 83.9152 23.9C83.9152 23.9 84.9152 23.3 84.6152 22.4C84.5152 21.9 84.1152 21.8 83.1152 21.9C80.8152 22.2 78.0152 23.3 76.0152 22.5C75.0152 22.1 74.4152 20.9 74.4152 19.7C74.4152 18 76.4152 17.3 76.4152 17.3V10.9C76.3152 10.7 75.3152 10.7 75.1152 11.2C74.8152 11.9 75.5152 12.2 75.5152 12.2C75.5152 12.2 74.9152 12.3 74.3152 11.7C74.0152 11.4 73.5152 10.3 74.2152 9.3C74.8152 8.5 75.5152 8.3 76.4152 8.2V4.5H76.3152ZM81.2152 17.5C81.2152 17.5 82.0152 17.7 82.6152 17.2C83.3152 16.6 83.2152 15.9 83.2152 15.9V11C83.2152 11 82.8152 10.5 82.2152 10.5C81.6152 10.5 81.2152 11 81.2152 11V17.5ZM83.2152 4.5L81.8152 3.3L81.1152 3.8V8.3C81.1152 8.3 81.5152 8.8 82.1152 8.8C82.7152 8.8 83.1152 8.3 83.1152 8.3L83.2152 4.5ZM83.2152 8.8C83.2152 8.8 82.8152 9.2 82.2152 9.2C81.6152 9.2 81.2152 8.8 81.2152 8.8V10.7C81.2152 10.7 81.6152 10.3 82.2152 10.3C82.8152 10.3 83.2152 10.7 83.2152 10.7V8.8ZM106.115 4.7C106.115 3.7 105.715 3.1 105.115 3.1L108.615 0.6V14.8L109.515 15.8L110.215 15.2L110.315 15.3L107.415 17.8L105.515 16L104.715 16.7L104.615 16.6L106.015 15.4V4.7H106.115ZM108.915 11.1L112.115 6.4C112.115 6.4 112.515 6.9 113.315 7.1C114.315 7.4 115.215 6.4 115.215 6.4C115.015 7.7 114.415 9.1 113.115 9.3C111.915 9.5 110.915 8.6 110.915 8.6L110.715 8.9L115.215 15.8L116.115 15L116.215 15.1L113.115 17.8L108.915 11.1ZM101.415 8.4L103.215 6.6C103.215 6.6 103.415 6.8 103.715 6.9C103.815 7 104.415 7.2 104.815 7C105.115 6.9 105.115 6.8 105.415 6.5C105.515 7.9 104.815 8.9 104.015 9.3C103.715 9.5 102.715 9.8 101.615 8.5V15L102.715 16L103.615 15.2L103.715 15.3L100.815 17.7L98.6152 15.7L97.8152 16.4L97.7152 16.2L98.9152 15.1V9.5L98.0152 8.3L97.2152 9L97.1152 8.9L99.9152 6.4L101.415 8.4ZM95.9152 9L96.7152 8.3L96.8152 8.4L96.1152 9.1V15.2C96.1152 15.2 94.6152 16 93.5152 16.6C92.4152 17.2 91.3152 17.9 91.3152 17.9L88.5152 15.6L87.8152 16.2L87.7152 16.1L88.5152 15.4V8.9C88.5152 8.9 89.8152 8.3 90.9152 7.7C91.9152 7.1 93.0152 6.5 93.0152 6.5L95.9152 9ZM91.1152 14.3L93.4152 16.4V9.8L91.1152 7.7V14.3ZM164.515 18.6C164.215 18.7 162.915 18.4 162.515 17C162.215 15.7 163.115 14.7 164.515 13.3L162.815 11.8V8.9C162.815 8.9 164.015 8.3 165.015 7.7C166.015 7.1 166.915 6.5 166.915 6.5C166.915 6.5 167.615 7.4 168.415 7.3C169.715 7.2 169.615 6.2 169.615 6C169.815 6.4 170.415 7.5 168.215 10.1L170.015 11.6V15.4C170.015 15.4 167.915 16.5 165.915 17.9C165.915 17.9 164.815 16.5 163.815 17.2C163.215 17.5 163.515 18.3 164.515 18.6ZM162.815 15.7C162.815 15.7 163.815 14.1 165.415 14.5C167.015 14.8 167.515 16.5 167.515 16.5V12.7L166.415 11.7C165.315 12.9 163.115 14.6 162.815 15.7ZM165.415 7.7V10.7L166.415 11.6C166.415 11.6 168.615 9.9 169.415 8.2C169.415 8.2 168.415 9.5 167.115 9.1C165.915 8.8 165.415 7.7 165.415 7.7ZM129.615 0C130.115 0 130.815 0.3 131.415 0.8C132.015 1.4 132.115 2.3 131.915 3C131.715 3.7 131.515 4.1 130.815 4.6C130.115 5.1 129.215 5.1 129.215 5.1V8.2L130.715 9.4L129.215 10.6V14.7C129.215 14.7 130.715 13.8 131.615 11.9C131.615 11.9 131.615 11.8 131.715 11.6C131.815 12.1 131.715 13.2 131.215 14.5C130.815 15.5 130.015 16.5 129.015 17C127.215 18 125.915 18.1 124.515 17.8C122.815 17.5 121.315 16.5 120.315 14.9C119.615 13.8 119.215 12.4 119.315 11C119.415 8.2 121.515 5.7 123.915 4.7C124.215 4.6 124.315 4.5 124.715 4.5C124.515 4.6 124.315 4.8 124.015 5C123.215 5.5 122.515 6.5 122.315 7.3L127.015 5.2V11.9L123.215 13.8C123.615 14.4 125.015 15.3 126.115 15.4C128.015 15.6 129.115 14.8 129.115 14.8V10.5L127.615 9.3L129.115 8.2V5C128.315 4.9 127.315 4.6 126.715 4.5C125.915 4.3 123.015 3.5 122.615 3.4C122.215 3.3 121.615 3.4 121.315 3.6C121.015 3.9 120.815 4.4 120.915 4.9C121.015 5.2 121.215 5.3 121.315 5.5C121.315 5.5 121.115 5.5 120.815 5.3C120.315 5 119.915 4.4 119.815 3.6C119.715 2.6 120.215 1.7 121.015 1.1C121.715 0.6 122.515 0.3 123.515 0.5C124.915 0.7 126.815 1.5 128.415 1.9C129.015 2.1 129.515 2.1 130.015 1.8C130.215 1.6 130.615 1.3 130.315 0.7C129.915 0.1 129.315 0.1 128.715 0C129.115 0 129.215 0 129.615 0ZM124.015 13.2V6.7L122.115 7.7C122.115 7.7 121.615 8.8 121.715 10.4C121.815 11.6 122.515 13.1 123.015 13.7L124.015 13.2ZM132.415 4.1L134.415 2.3L136.015 4.1L134.015 5.9L132.415 4.1ZM134.315 6.5L136.315 8.8L137.215 8L137.315 8.1L136.415 8.9V14.5L137.515 15.8L138.315 15.1L138.415 15.2L135.715 17.6L133.815 15.5L132.915 16.2L132.815 16.1L133.615 15.4V9.6L132.515 8.2L131.815 8.8L131.715 8.7L134.315 6.5ZM140.215 6.5L142.115 8.6L144.715 6.5L146.615 8.6L149.315 6.4L151.215 8.5L152.215 7.7L152.315 7.8L151.315 8.6V14.4L152.315 15.6L153.015 15L153.115 15.1L150.315 17.7L148.215 15.4L148.715 14.9V9.9L147.215 8.3L146.815 8.8V15L147.515 15.8L145.515 17.8L143.615 15.7L144.115 15.2V10.2L142.715 8.5L142.215 8.9V15.1L143.015 16L140.915 18L138.915 15.7L139.515 15.1V10.1L138.215 8.6L137.315 9.3L137.215 9.2L140.215 6.5ZM159.315 6.4L161.315 10.1L157.115 13.2V13.9L159.215 15.9L161.815 13.9L161.915 14L157.315 17.7L154.615 15.3L153.815 16L153.715 15.9L154.615 15.2V9.2C154.615 9.2 155.915 8.6 156.915 8C157.915 7.4 159.315 6.4 159.315 6.4ZM159.315 11.6L157.215 8V13.2L159.315 11.6ZM59.1152 17.9L56.8152 16L55.8152 16.7L55.7152 16.6L56.7152 15.9V10.6C56.7152 8.4 54.7152 9 54.8152 6.7C54.8152 5.7 55.8152 4.9 56.3152 4.7C56.8152 4.4 57.4152 4.4 57.4152 4.4C57.4152 4.4 56.5152 5 56.7152 5.8C57.0152 7.1 59.2152 7.2 59.3152 8.9V15L60.9152 16.3L61.3152 16V9.4L60.4152 8.5L62.7152 6.5L64.8152 8.3L64.1152 9.2V15L66.0152 16.6L66.3152 16.4V9.4L65.4152 8.6L67.7152 6.5L69.8152 8.2L70.6152 7.5L70.7152 7.6L68.8152 9.3V14.9L63.9152 17.9L61.4152 15.9L59.1152 17.9ZM52.7152 6.4L54.7152 10.1L50.5152 13.2V13.9L52.6152 15.9L55.2152 13.9L55.3152 14L50.7152 17.7L48.0152 15.3L47.1152 16.1L47.0152 16L47.9152 15.3V9.2C47.9152 9.2 49.2152 8.6 50.2152 8C51.3152 7.4 52.7152 6.4 52.7152 6.4ZM52.7152 11.6L50.6152 8V13.2L52.7152 11.6ZM37.4152 19.7C35.9152 20 35.0152 19.2 34.5152 18.6C34.0152 17.9 33.9152 16.8 34.4152 15.8C35.2152 14.2 37.1152 14.2 37.6152 14.2V10.2C37.6152 10 36.4152 10.1 36.2152 10.6C36.0152 11.2 36.6152 11.6 36.6152 11.6C36.6152 11.6 36.2152 11.6 35.7152 11.3C35.3152 11 34.9152 10.3 34.9152 9.6C35.0152 7.6 36.9152 7.6 37.6152 7.5V4.6C37.3152 4.1 37.0152 3.5 36.3152 3.5C35.5152 3.5 35.3152 4.7 35.3152 4.7C35.3152 4.7 35.2152 4.4 35.3152 3.3C35.4152 2.3 36.4152 1.1 37.7152 1.1C38.8152 1.1 39.6152 1.8 40.1152 2.6L45.4152 12.3V4.6C44.7152 4.6 44.0152 4.5 43.0152 3.6L42.2152 4.5L42.1152 4.4L44.8152 1.3C44.8152 1.3 45.5152 2.1 46.6152 2.1C47.5152 2.1 48.0152 1.4 48.1152 0.7C48.3152 0.8 48.8152 2.4 47.4152 3.8C47.1152 4.2 46.2152 4.6 45.6152 4.6V17.8C45.6152 17.8 45.7152 18 45.4152 18C45.1152 18 45.0152 17.9 45.0152 17.9L37.8152 4.8V14.2C38.9152 14.4 39.9152 14.9 40.7152 15.7L41.4152 14.9L41.5152 15L38.8152 18C38.2152 17.3 37.4152 16.9 36.7152 17C36.0152 17.1 35.6152 17.8 35.6152 18.2C35.7152 18.8 36.2152 19.5 37.4152 19.7ZM16.6152 20.2C17.3152 20 17.6152 19.9 18.4152 19.1C19.1152 18.3 19.1152 16.5 19.1152 15.1V9.9L17.8152 8.2L16.9152 8.9V15.1L17.6152 15.8L18.3152 15.2L18.4152 15.3L15.4152 17.7L13.5152 15.9L12.8152 16.4L12.6152 16.2L14.0152 15.2V4.3C14.0152 3.6 13.5152 3.6 13.4152 3.5L16.7152 0.9V8.8L19.4152 6.5L21.5152 8.8L22.4152 8.1L22.6152 8.2L21.7152 8.9V13.7L21.6152 15.9C21.6152 17.5 20.9152 19 19.5152 19.7C18.3152 20.5 17.2152 20.4 16.6152 20.2ZM28.8152 6.4L30.9152 10.1L26.7152 13.2V13.9L28.8152 15.9L31.4152 13.9L31.5152 14L26.9152 17.7L24.1152 15.3L23.3152 16H23.1152L24.0152 15.3V9.2C24.0152 9.2 25.3152 8.6 26.3152 8C27.3152 7.4 28.8152 6.4 28.8152 6.4ZM28.9152 11.6L26.8152 8V13.2L28.9152 11.6ZM10.3152 0C10.8152 0 11.5152 0.3 12.1152 0.8C12.7152 1.4 12.8152 2.3 12.6152 3C12.4152 3.7 12.2152 4.1 11.5152 4.6C10.8152 5.1 9.91521 5.1 9.91521 5.1V8.2L11.4152 9.4L9.91521 10.6V14.8C9.91521 14.8 11.4152 13.9 12.3152 12C12.3152 12 12.3152 11.9 12.4152 11.7C12.5152 12.2 12.4152 13.3 11.9152 14.6C11.5152 15.6 10.7152 16.6 9.71521 17.1C7.91521 18.1 6.61521 18.2 5.21521 17.9C3.51521 17.6 2.01521 16.6 1.01521 15C0.315206 13.9 -0.0847937 12.5 0.0152063 11.1C0.0152063 8.4 2.11521 5.8 4.51521 4.9C4.81521 4.8 4.91521 4.7 5.31521 4.7C5.21521 4.8 5.01521 5 4.61521 5.2C3.81521 5.7 3.11521 6.7 2.91521 7.6L7.61521 5.5V12.2L3.81521 14.1C4.21521 14.7 5.51521 15.6 6.71521 15.7C8.61521 15.9 9.71521 15.1 9.71521 15.1V10.8L8.21521 9.6L9.71521 8.4V5.1C9.01521 5 8.01521 4.7 7.41521 4.6C6.61521 4.4 3.71521 3.6 3.31521 3.5C2.91521 3.4 2.31521 3.5 2.01521 3.7C1.61521 4 1.41521 4.5 1.51521 5C1.61521 5.3 1.81521 5.4 1.91521 5.6C1.91521 5.6 1.71521 5.6 1.41521 5.4C0.915206 5.1 0.515206 4.5 0.415206 3.7C0.315206 2.7 0.815206 1.8 1.61521 1.2C2.31521 0.7 3.11521 0.4 4.11521 0.6C5.51521 0.8 7.41521 1.6 9.01521 2C9.71521 2.2 10.2152 2.2 10.7152 1.9C10.9152 1.7 11.3152 1.4 11.0152 0.8C10.6152 0.2 10.0152 0.2 9.41521 0.1C9.91521 -3.72529e-08 10.0152 0 10.3152 0ZM4.61521 13.2L3.61521 13.7C3.11521 13.1 2.41521 11.6 2.31521 10.4C2.21521 8.8 2.71521 7.7 2.71521 7.7L4.61521 6.8V13.2Z" fill="#0074BD"/>
</svg>
