<svg width="83" height="33" viewBox="0 0 83 33" fill="none" xmlns="http://www.w3.org/2000/svg">
<path id="Red-Bull" d="M44.8 32.1V23H47.4C48.9 23 50.6 23 50.7 25.1C50.7 25.8 50.6 26.6 49.8 27.2C51.4 27.5 51.5 29.7 50.9 30.7C50.3 31.7 49.4 32 48.3 32H46.6H46.1H44.8V32.1ZM46.3 24.2V26.7H47.8C48.7 26.7 49.4 26.3 49.4 25.3C49.4 24.5 48.9 24.2 47.9 24.2H46.3ZM46.3 28.1V30.9H48.1C48.6 30.9 49.2 30.8 49.5 30.5C49.8 30.2 49.9 29.9 49.9 29.5C49.9 28.6 49.1 28.1 47.9 28.1H46.3ZM24.2 32.1H22.5C21.7 31 19.7 28.5 19 28.5H18.1V32.1H16.6V23H20.7C21.9 23 23.1 23.6 23.5 24.6C23.6 25 23.7 25.3 23.6 25.7C23.5 27.1 22.3 28 21 28C21 28 22.2 29.3 22.2 29.4L24.2 32.1ZM18.1 24.2V27H20.5C21.8 27 22.7 25.5 21.7 24.6C21.4 24.4 21 24.2 20.5 24.2H18.1ZM61 32.1H62.4V22.9H61V32.1ZM28.7 26.7C29.6 26.7 30.5 27.2 30.8 28H26.5C26.8 27.2 27.6 26.7 28.7 26.7ZM32.2 28.8C32.1 26.7 30.7 25.4 28.7 25.4C26.7 25.4 25 26.9 25 28.8C25 30.7 26.6 32.2 28.6 32.2C30.2 32.2 31.5 31.3 32 29.9L30.7 29.6C30.3 30.4 29.5 30.9 28.5 30.9C27.3 30.9 26.3 30.1 26.2 29H31C32 29.1 32.2 29.1 32.2 28.8ZM36.8 31.1C35.6 31.1 34.7 30.1 34.7 28.8C34.7 27.5 35.6 26.5 36.8 26.5C37.9 26.5 38.8 27.5 38.9 28.7V28.8C38.9 30.1 38 31.1 36.8 31.1ZM38.9 22.9V25.9C38.3 25.4 37.6 25.1 36.8 25.1C34.9 25.1 33.4 26.7 33.4 28.7C33.4 30.7 34.9 32.3 36.8 32.3C37.6 32.3 38.3 32 38.9 31.5V32.1H40.3V22.9H38.9ZM64.2 32.1H65.6V22.9H64.2V32.1ZM53.2 29.5C53.2 32.1 54.9 32.3 57 32.2C58.6 32.1 59.3 31.3 59.3 29.5V25.7H57.9V29.4C57.9 30.6 57.3 31.1 56.4 31.1C55.4 31.1 54.5 30.8 54.5 29.4V25.7H53.1V29.5H53.2ZM43.8 22H47.4H47.9C48.8 22 49.7 22.1 50.4 22.6C51.2 21.8 51.8 21 52.4 20H52.2H52.1C51.9 20 51.5 19.9 51.3 19.8C51 19.7 50.7 19.6 50.4 19.5C50.2 19.4 49.7 19.3 49.5 19.3H49.4H49.3H48.9C48.2 19.4 47.3 19.1 46.8 18.6C46.5 18.9 46.2 19.1 46 19.3C45.3 19.8 44.5 19.8 43.6 19.8C43.1 19.8 42.7 19.5 42.6 19.3C42.5 19.1 42.9 18.8 42.6 18.6C42.2 18.3 41.2 18.1 42.1 17.5C42.4 17.3 42.7 16.9 43.1 16.4C43.2 16 43.5 15.6 43.8 15.2L44.4 14.5L44.5 14.4C44.6 13.8 44.8 13 45.1 12.5C45.1 12.3 45.2 11.8 45.4 11.2C45.5 10.9 45.6 10.4 45.6 10.1C45.5 9.1 45.9 8 46.5 7.3C46.6 7.1 46.8 6.8 46.9 6.6C47.2 6.1 47.6 5.6 48.4 4.8C48.8 4.4 49.2 4 49.6 3.6C47.4 1.7 44.5 0.6 41.3 0.6C38.1 0.6 35 1.8 32.8 3.8L33.8 4.8C34.6 5.7 35 6.2 35.3 6.6C35.4 6.8 35.6 7 35.7 7.3C36.3 8 36.6 9.2 36.6 10.1C36.6 10.4 36.8 10.9 36.8 11.2C37 11.9 37.1 12.3 37.1 12.5C37.4 13 37.6 13.7 37.7 14.4L37.8 14.5L38.4 15.2C38.7 15.6 38.9 16 39.1 16.4C39.5 16.9 39.8 17.3 40.1 17.5C41 18.1 40 18.3 39.6 18.6C39.3 18.8 39.6 19.1 39.6 19.3C39.6 19.5 39.1 19.7 38.6 19.8C37.8 19.9 37 19.8 36.2 19.3C35.9 19.1 35.6 18.9 35.4 18.6C34.8 19.1 34 19.4 33.3 19.3H33H32.9H32.8C32.6 19.3 32.1 19.5 31.9 19.5C31.6 19.6 31.3 19.7 31 19.8C30.8 19.9 30.5 19.9 30.3 20C31.4 21.9 32.9 23.4 34.8 24.5C35.3 24.2 35.9 24.1 36.6 24.1C37 24.1 37.3 24.1 37.7 24.2V21.8H41.3V26.3H41.5C42.3 26.3 43 26.2 43.7 26.1V22H43.8ZM47.3 25.4V25.9H47.8C48.1 25.9 48.4 25.9 48.4 25.5C48.3 25.5 48 25.4 47.9 25.4H47.3ZM47.3 29.1V29.8H48.1C48.3 29.8 48.7 29.8 48.8 29.7C48.9 29.6 48.9 29.6 48.9 29.5V29.4C48.8 29.2 48.1 29.2 47.9 29.2L47.3 29.1ZM24.3 30.6C24.1 30.1 23.9 29.5 23.9 28.8C23.9 28.3 24 27.9 24.1 27.5C23.8 28 23.3 28.4 22.8 28.7C22.9 28.8 22.9 28.9 23 28.9L24.3 30.6ZM75.1 11.1C75.1 11.1 75.3 12.7 74.6 14.1C74.6 14.1 74.1 14.8 74.6 15.3L75.7 15.9C75.7 15.9 75.8 16 76.3 16C76.3 16 77 15.8 77.2 16.1C77.2 16.1 77.4 16.7 77.6 17.1C77.6 17.1 78.1 18.2 78.9 18.6C78.9 18.6 79.5 18.7 79.7 19.3C79.7 19.3 79.9 19.7 80.3 19.7C80.3 19.7 80.6 19.8 80.8 20.5C80.8 20.5 80.9 21 80.9 21.3C80.9 21.3 80.4 21.2 80 21.4C80 21.4 79.2 21.7 78.8 21C78.8 21 78.1 19.7 77.5 19.9C77.5 19.9 76.4 20.3 75.6 19.5C75.6 19.5 74.5 18.3 73 18.6C73 18.6 71.3 18.9 70.8 18.6C70.8 18.6 69.7 18 69.3 17.9C69.3 17.9 68.8 17.8 68.8 17.2C68.8 17.2 68.5 16.4 68.3 16.2H69C69 16.2 69.7 17.4 71 17.8C71 17.8 71.7 18.1 73 17.9C73 17.9 75 17.5 76.7 19.3C76.7 19.3 76.9 19.6 77.3 19.5C77.3 19.5 76.4 17.9 74.3 17.5C74.3 17.5 73.6 17.4 73.1 17.4C73.1 17.4 70.3 17.5 69 14.7C69 14.7 69.1 12.3 68.5 11.8C68.5 11.8 68.3 11.7 68.3 12.2C68.3 12.2 68.7 14.7 67.9 15.2C67.9 15.2 67.4 15.6 66.6 15.4C66.6 15.4 65.3 15.1 64.2 15.3C64.2 15.3 62.6 15.7 61.2 15.5C61.2 15.5 61.6 14.9 61.5 14.3C61.5 14.3 61.3 13.8 61.1 14.1C61.1 14.1 60.6 15.9 59.1 16.4C59.1 16.4 57.8 16.9 57.8 18.6C57.8 18.6 58 18.8 59.7 19.5C59.7 19.5 60.4 19.7 60.6 19.2C60.6 19.2 61.4 17.4 62.2 17.4L63.6 17.5C63.6 17.5 64.1 17.6 63.7 18C63.7 18 63.2 18.6 63 19C63 19 62.9 19.3 62.5 19.3C62.5 19.3 61.9 19 61.5 20.1C61.5 20.1 61.2 20.7 60.6 20.9C60.6 20.9 60.1 21.1 59.6 20.8C59.6 20.8 57.3 20 56.9 19.7C56.9 19.7 56.4 19.4 56 19.6C56 19.6 55.3 19.8 55 19.2L54.3 18.1C54.3 18.1 54.1 17.8 54.2 17.5C54.2 17.5 54.1 17.2 54.4 16.8C54.4 16.8 54.7 16.5 54.7 16.3L55.2 15.1C55.2 15.1 55.4 14.8 55.6 14.7H56.3C56.3 14.7 55.8 15.9 55.5 16.4C55.5 16.4 55 17.1 55.1 17.6C55.1 17.6 55.1 17.9 55.3 18C55.3 18 55.5 18.3 55.5 18.4C55.5 18.4 55.7 18.8 55.9 18.9C55.9 18.9 56.2 19.1 56.3 19.1C56.3 19.1 56.4 19.1 56.3 18.9C56.3 18.9 55.9 18.1 55.9 17.7C55.9 17.7 55.8 17.3 56.1 17C56.1 17 56.8 15.8 56.9 15.5C56.9 15.5 57.1 15 57.3 15C57.3 15 57.6 14.7 57.1 14.5C57.1 14.5 56.1 14.3 55.9 14.1C55.9 14.1 55.4 13.9 55.1 12.9C55.1 12.9 54.7 11.7 54.7 10.9C54.7 10.9 53.8 12.6 55.2 14.3C55.2 14.3 54.1 14.6 53.7 14.3C53.7 14.3 52.3 14.1 52.1 14C52.1 14 51.8 13.9 52 14.2C52 14.2 52.4 14.8 52.4 15.2C52.4 15.2 52.4 15.5 52.7 15.7C52.7 15.7 53.5 16.2 53.5 16.8C53.5 16.8 53.7 17.3 53.3 17.2C53.3 17.2 52.8 17 52.7 17.2L52.8 17.4C52.8 17.4 53.3 17.8 53.3 18.4C53.3 18.4 53.2 19 53.1 19.2C53.1 19.2 52.9 19.5 52.6 19.4C52.6 19.4 52.5 19.3 52.4 19.4C52.4 19.4 52.2 19.4 51.8 19.3C51.8 19.3 51.2 19.1 50.9 19C50.9 19 50.1 18.7 49.7 18.7H49.1C49.1 18.7 48.1 18.8 47.4 18.1C47.4 18.1 46.9 17.7 46.7 18.1C46.7 18.1 45.4 19.8 43.4 19.4C43.4 19.4 45 18.7 45.4 17.8C45.4 17.8 45.5 17 46.3 15.9C46.3 15.9 46.6 15.5 46.3 15.4C46.3 15.4 46.2 15.3 45.8 15.6C45.8 15.6 45 16.4 44.7 17.1C44.7 17.1 43.7 18.6 42.3 18.1C42.3 18.1 43.4 17.7 44 16.8C44 16.8 44.3 15.7 45.4 14.9C45.4 14.9 45.4 13.7 46 13C46 13 46.3 11.8 46.3 11.6C46.3 11.6 46.6 10.6 46.6 10.3C46.6 10.3 46.5 9 47.4 7.9C47.4 7.9 48 6.8 48.9 6C48.9 6 49.6 5.2 50.1 4.6C50.1 4.6 50.8 3.8 52.2 2.8C52.2 2.8 52.9 2.3 53.3 1.8C53.3 1.8 55.9 -0.0999999 57.7 1.4C57.7 1.4 59 2.3 60 2.5C60 2.5 62.2 2.8 63.1 4.3C63.1 4.3 63.2 4.6 64.1 4.7C64.1 4.7 66 4.5 67.5 6.4C67.5 6.4 68.2 7.1 69.5 7.2C69.5 7.2 71.6 7 73 8.6C73 8.6 76.5 11.7 78.6 9.7C78.6 9.7 79.7 8.7 78.4 6.8C78.4 6.8 77.6 5.8 76.3 4.8C76.3 4.8 75.2 4 75.7 2.8C75.7 2.8 76 1.6 77.6 1.6C77.6 1.6 79.6 1.2 80.5 0.2C80.5 0.2 81.4 3.5 77.8 3.4C77.8 3.4 76.9 3.5 77.2 4.3C77.2 4.3 77.7 5 78.3 5.2C78.3 5.2 79.4 5.7 79.9 7.3C79.9 7.3 81 10.1 78.3 11.2C77.4 11.4 76.2 11.3 75.1 11.1ZM80.3 17.9C80.2 17.8 79.9 17.7 79.7 17.8C79.3 17.9 79.5 18.3 79.5 18.3C79.7 18.6 80.2 19.2 80.2 19.2C80.7 19.6 81.1 19.1 81.1 19.1C81.5 18.7 81 18.5 81 18.5C80.8 18.3 80.3 17.9 80.3 17.9ZM81.4 19.6C81.4 19.6 81.2 19.7 81.3 19.9C81.3 19.9 81.7 21 81.7 21.4C81.7 21.4 82.6 21.6 82.7 21.1C82.7 21.1 82.7 20.9 82.6 20.7C82.6 20.7 82.4 20.5 82.4 20C82.4 20 82.4 18.9 81.7 19.2C81.6 19.4 81.5 19.5 81.4 19.6ZM49.8 17.4C50 17.4 50 17.3 50 17.2C49.9 16.7 49.5 16.5 49.5 16.5C48.8 16.1 48.7 16.5 48.7 16.5C48.6 17.3 49.2 17.4 49.2 17.4C49.3 17.4 49.8 17.4 49.8 17.4ZM47.6 13.9C47.6 13.5 47.6 12.7 47.9 12.4C48 12.3 48.6 11.7 48.6 11.7C48.7 11.6 48.7 11.5 48.7 11.5C48.8 11.5 49 11.7 49 11.7C49.4 12.4 49.8 12.4 49.8 12.4C49.8 12.3 49.7 12.1 49.7 12.1C49.6 11.9 49.2 11 49.2 11C49.1 10.9 49.1 10.7 49.1 10.7C48.7 10.1 48.4 10.6 48.4 10.6C48.2 10.9 47.4 11.9 47.4 11.9C47.2 12.1 47.2 12.4 47.2 12.4C47 13.7 47.6 13.9 47.6 13.9ZM55.3 5.6C55.4 5.4 55.4 5.2 55.3 5C55 4.6 54.8 5 54.8 5C53.9 6.2 54.6 8.1 54.6 8.1C54.6 6.4 55.3 5.6 55.3 5.6ZM7.7 11.1C7.7 11.1 7.5 12.7 8.2 14.1C8.2 14.1 8.7 14.8 8.2 15.3L7.1 15.9C7.1 15.9 7 16 6.5 16C6.5 16 5.8 15.8 5.6 16.1C5.6 16.1 5.4 16.7 5.2 17.1C5.2 17.1 4.7 18.2 3.9 18.6C3.9 18.6 3.3 18.7 3.1 19.3C3.1 19.3 2.9 19.7 2.5 19.7C2.5 19.7 2.2 19.8 2 20.5C2 20.5 1.9 21 1.9 21.3C1.9 21.3 2.4 21.2 2.8 21.4C2.8 21.4 3.6 21.7 4 21C4 21 4.7 19.7 5.3 19.9C5.3 19.9 6.4 20.3 7.2 19.5C7.2 19.5 8.3 18.3 9.8 18.6C9.8 18.6 11.5 18.9 12 18.6C12 18.6 13.1 18 13.5 17.9C13.5 17.9 14 17.8 14 17.2C14 17.2 14.3 16.4 14.5 16.2H13.7C13.7 16.2 13 17.4 11.7 17.8C11.7 17.8 11 18.1 9.7 17.9C9.7 17.9 7.7 17.5 6 19.3C6 19.3 5.8 19.6 5.4 19.5C5.4 19.5 6.3 17.9 8.4 17.5C8.4 17.5 9.1 17.4 9.6 17.4C9.6 17.4 12.4 17.5 13.7 14.7C13.7 14.7 13.6 12.3 14.2 11.8C14.2 11.8 14.4 11.7 14.4 12.2C14.4 12.2 14 14.7 14.8 15.2C14.8 15.2 15.3 15.6 16.1 15.4C16.1 15.4 17.4 15.1 18.5 15.3C18.5 15.3 20.1 15.7 21.5 15.5C21.5 15.5 21.1 14.9 21.2 14.3C21.2 14.3 21.4 13.8 21.6 14.1C21.6 14.1 22.1 15.9 23.6 16.4C23.6 16.4 24.9 16.9 24.9 18.6C24.9 18.6 24.7 18.8 23 19.5C23 19.5 22.3 19.7 22.1 19.2C22.1 19.2 21.3 17.4 20.5 17.4H19.1C19.1 17.4 18.6 17.5 19 17.9C19 17.9 19.5 18.5 19.7 18.9C19.7 18.9 19.8 19.2 20.2 19.2C20.2 19.2 20.8 18.9 21.2 20C21.2 20 21.5 20.6 22.1 20.8C22.1 20.8 22.6 21 23.1 20.7C23.1 20.7 25.4 19.9 25.8 19.6C25.8 19.6 26.3 19.3 26.7 19.5C26.7 19.5 27.4 19.7 27.7 19.1L28.4 18C28.4 18 28.6 17.7 28.5 17.4C28.5 17.4 28.6 17.1 28.3 16.7C28.3 16.7 28 16.4 28 16.2L27.5 15C27.5 15 27.3 14.7 27.1 14.6H26.4C26.4 14.6 26.9 15.8 27.2 16.3C27.2 16.3 27.7 17 27.6 17.5C27.6 17.5 27.6 17.8 27.4 17.9C27.4 17.9 27.2 18.2 27.2 18.3C27.2 18.3 27 18.7 26.8 18.8C26.8 18.8 26.5 19 26.4 19C26.4 19 26.3 19 26.4 18.8C26.4 18.8 26.8 18 26.8 17.6C26.8 17.6 26.9 17.2 26.6 16.9C26.6 16.9 25.9 15.7 25.8 15.4C25.8 15.4 25.6 14.9 25.4 14.9C25.4 14.9 25.1 14.6 25.6 14.4C25.6 14.4 26.6 14.2 26.8 14C26.8 14 27.3 13.8 27.6 12.8C27.6 12.8 28 11.6 28 10.8C28 10.8 28.9 12.5 27.5 14.2C27.5 14.2 28.6 14.5 29 14.2C29 14.2 30.4 14 30.6 13.9C30.6 13.9 30.9 13.8 30.7 14.1C30.7 14.1 30.3 14.7 30.3 15.1C30.3 15.1 30.3 15.4 30 15.6C30 15.6 29.2 16.1 29.2 16.7C29.2 16.7 29 17.2 29.4 17.1C29.4 17.1 29.9 16.9 30 17.1L29.9 17.3C29.9 17.3 29.4 17.7 29.4 18.3C29.4 18.3 29.5 18.9 29.6 19.1C29.6 19.1 29.8 19.4 30.1 19.3C30.1 19.3 30.2 19.2 30.3 19.3C30.3 19.3 30.5 19.3 30.9 19.2C30.9 19.2 31.5 19 31.8 18.9C31.8 18.9 32.6 18.6 33 18.6H33.6C33.6 18.6 34.6 18.7 35.3 18C35.3 18 35.8 17.6 36 18C36 18 37.3 19.7 39.3 19.3C39.3 19.3 37.7 18.6 37.3 17.7C37.3 17.7 37.2 16.9 36.4 15.8C36.4 15.8 36.1 15.4 36.4 15.3C36.4 15.3 36.5 15.2 36.9 15.5C36.9 15.5 37.7 16.3 38 17C38 17 39 18.5 40.4 18C40.4 18 39.3 17.6 38.7 16.7C38.7 16.7 38.4 15.6 37.3 14.8C37.3 14.8 37.3 13.6 36.7 12.9C36.7 12.9 36.4 11.7 36.4 11.5C36.4 11.5 36.1 10.5 36.1 10.2C36.1 10.2 36.2 8.9 35.3 7.8C35.3 7.8 34.7 6.7 33.8 5.9C33.8 5.9 33.1 5.1 32.6 4.5C32.6 4.5 31.9 3.7 30.5 2.7C30.5 2.7 29.8 2.2 29.4 1.7C29.4 1.7 26.8 -0.2 25 1.3C25 1.3 23.7 2.2 22.7 2.4C22.7 2.4 20.5 2.7 19.6 4.2C19.6 4.2 19.5 4.5 18.6 4.6C18.6 4.6 16.7 4.4 15.2 6.3C15.2 6.3 14.5 7 13.2 7.1C13.2 7.1 11.1 6.9 9.7 8.5C9.7 8.5 6.2 11.6 4.1 9.6C4.1 9.6 3 8.6 4.3 6.7C4.3 6.7 5.1 5.7 6.4 4.7C6.4 4.7 7.5 3.9 7 2.7C7 2.7 6.7 1.4 5 1.4C5 1.4 3 1 2.1 0C2.1 0 1.2 3.3 4.8 3.2C4.8 3.2 5.7 3.3 5.4 4.1C5.4 4.1 4.9 4.8 4.3 5C4.3 5 3.2 5.5 2.7 7.1C2.7 7.1 1.6 9.9 4.3 11C5.3 11.4 6.6 11.3 7.7 11.1ZM2.4 17.9C2.5 17.8 2.8 17.7 3 17.8C3.4 17.9 3.2 18.3 3.2 18.3C3 18.6 2.5 19.2 2.5 19.2C2 19.6 1.6 19.1 1.6 19.1C1.2 18.7 1.7 18.5 1.7 18.5C1.9 18.3 2.4 17.9 2.4 17.9ZM1.3 19.6C1.3 19.6 1.5 19.7 1.4 19.9C1.4 19.9 1 21 1 21.4C1 21.4 0.1 21.6 0 21.1C0 21.1 0 20.9 0.1 20.7C0.1 20.7 0.3 20.5 0.3 20C0.3 20 0.3 18.9 1 19.2C1.1 19.4 1.2 19.5 1.3 19.6ZM32.9 17.4C32.7 17.4 32.7 17.3 32.7 17.2C32.8 16.7 33.2 16.5 33.2 16.5C33.9 16.1 34 16.5 34 16.5C34.1 17.3 33.5 17.4 33.5 17.4C33.4 17.4 32.9 17.4 32.9 17.4ZM35.1 13.9C35.1 13.5 35.1 12.7 34.8 12.4C34.7 12.3 34.1 11.7 34.1 11.7C34 11.5 34 11.4 34 11.4C33.9 11.4 33.7 11.6 33.7 11.6C33.3 12.3 32.9 12.3 32.9 12.3C32.9 12.2 33 12 33 12C33.1 11.8 33.5 10.9 33.5 10.9C33.6 10.8 33.6 10.6 33.6 10.6C34 10 34.3 10.5 34.3 10.5C34.5 10.8 35.3 11.8 35.3 11.8C35.5 12 35.5 12.3 35.5 12.3C35.7 13.7 35.1 13.9 35.1 13.9ZM27.4 5.6C27.3 5.4 27.3 5.2 27.4 5C27.7 4.6 27.9 5 27.9 5C28.8 6.2 28.1 8.1 28.1 8.1C28.1 6.4 27.4 5.6 27.4 5.6Z" fill="#0074BD"/>
</svg>
