<svg width="13" height="13" viewBox="0 0 13 13" fill="none" xmlns="http://www.w3.org/2000/svg">
<path d="M8.69062 0.650337L3.62317 0.451065C3.22561 0.435526 2.83817 0.578551 2.54606 0.848676C2.25396 1.1188 2.08113 1.4939 2.06559 1.89146C2.05005 2.28901 2.19308 2.67646 2.4632 2.96856C2.73333 3.26066 3.10843 3.43349 3.50598 3.44903L6.95258 3.58456L0.495484 9.55304C0.203343 9.82307 0.0304379 10.1981 0.0148057 10.5956C-0.000826405 10.9931 0.142095 11.3806 0.412129 11.6727C0.682163 11.9649 1.05719 12.1378 1.45471 12.1534C1.85222 12.169 2.23967 12.0261 2.53181 11.7561L8.98891 5.7876L8.85338 9.2342C8.83765 9.63175 8.98049 10.0193 9.25048 10.3115C9.52047 10.6037 9.89549 10.7767 10.293 10.7925C10.6906 10.8082 11.0781 10.6653 11.3703 10.3954C11.6626 10.1254 11.8356 9.75035 11.8513 9.3528L12.0506 4.28535C12.0857 3.3581 11.7518 2.45474 11.122 1.77333C10.4921 1.09192 9.61777 0.688073 8.69062 0.650337Z" fill="white"/>
</svg>
