<svg width="15" height="14" viewBox="0 0 15 14" fill="none" xmlns="http://www.w3.org/2000/svg">
<path id="Vector" d="M13.561 4.24803L9.975 0.662027C9.69361 0.380765 9.31201 0.222807 8.91415 0.2229C8.51629 0.222994 8.13476 0.381132 7.8535 0.662527C7.57224 0.943922 7.41428 1.32552 7.41437 1.72338C7.41447 2.12124 7.57261 2.50276 7.854 2.78403L10.293 5.22303L1.5 5.22303C1.10218 5.22303 0.720644 5.38106 0.43934 5.66237C0.158035 5.94367 0 6.3252 0 6.72303C0 7.12085 0.158035 7.50238 0.43934 7.78369C0.720644 8.06499 1.10218 8.22303 1.5 8.22303H10.293L7.854 10.662C7.57261 10.9433 7.41447 11.3248 7.41437 11.7227C7.41428 12.1205 7.57224 12.5021 7.8535 12.7835C8.13476 13.0649 8.51629 13.2231 8.91415 13.2232C9.31201 13.2232 9.69361 13.0653 9.975 12.784L13.561 9.19803C14.2162 8.54099 14.5842 7.65094 14.5842 6.72303C14.5842 5.79511 14.2162 4.90506 13.561 4.24803Z" fill="black"/>
</svg>
