<svg width="268" height="268" viewBox="0 0 268 268" fill="none" xmlns="http://www.w3.org/2000/svg">
<path d="M245.807 157.465C232.349 157.465 225.491 147.97 219.448 139.58C213.55 131.487 208.002 123.791 197.159 123.783C186.27 123.791 180.745 131.434 174.877 139.588C168.85 147.978 161.946 157.488 148.526 157.45C135.031 157.488 128.158 147.932 122.122 139.55C116.278 131.48 110.715 123.799 99.8407 123.821C88.9666 123.783 83.4496 131.449 77.5972 139.588C71.4782 147.962 64.658 157.495 51.2007 157.495C37.7433 157.495 30.9156 147.97 24.8042 139.588C18.9823 131.495 13.4119 123.776 2.52255 123.783L2.55303 118.708C16.0104 118.708 22.8381 128.234 28.9496 136.616C34.7791 144.716 40.319 152.405 51.2007 152.374C62.0671 152.42 67.6147 144.724 73.4442 136.608C79.5251 128.195 86.3834 118.701 99.8331 118.708C113.29 118.708 120.164 128.188 126.237 136.608C132.09 144.747 137.63 152.42 148.519 152.413C159.355 152.428 164.91 144.724 170.77 136.639C176.843 128.234 183.717 118.754 197.159 118.739C210.578 118.701 217.474 128.234 223.525 136.616C229.408 144.769 234.917 152.428 245.814 152.413C253.998 152.458 259.157 148.046 263.714 142.453L267.311 146.05C262.198 152.169 255.82 157.465 245.814 157.457" fill="white"/>
</svg>
