<svg width="32" height="32" viewBox="0 0 32 32" fill="none" xmlns="http://www.w3.org/2000/svg">
<path d="M0 5.75C0 2.98857 2.23858 0.75 5 0.75H26.1884C28.9498 0.75 31.1883 2.98858 31.1883 5.75V26.9384C31.1883 29.6998 28.9498 31.9383 26.1883 31.9383H5C2.23857 31.9383 0 29.6998 0 26.9383V5.75Z" fill="white"/>
<path d="M9.04702 14.0067C9.02377 13.4515 9.21573 12.9912 9.63019 12.6146C9.91846 12.3529 10.1835 12.0659 10.4644 11.7963C10.9188 11.3605 11.3943 11.3546 11.8467 11.7929C12.3521 12.2831 12.8516 12.7806 13.3418 13.2854C13.7822 13.7391 13.7755 14.2027 13.3325 14.6617C13.0569 14.9479 12.7759 15.2302 12.4843 15.5006C12.3395 15.6354 12.3169 15.7549 12.4019 15.9343C12.8118 16.8037 13.4394 17.5065 14.1129 18.172C14.6988 18.7512 15.349 19.2467 16.0989 19.6067C16.2603 19.6844 16.3679 19.6751 16.4915 19.5449C16.7711 19.2507 17.0594 18.9644 17.3503 18.6815C17.8146 18.2298 18.2869 18.2251 18.7478 18.6748C19.246 19.161 19.7395 19.6519 20.2263 20.1494C20.676 20.6083 20.6707 21.0819 20.221 21.5449C19.9215 21.8544 19.6166 22.1586 19.3124 22.4635C18.8627 22.9138 18.3054 22.9995 17.7023 22.9324C16.7439 22.8255 15.8771 22.4548 15.0515 21.9872C12.3747 20.4728 10.4086 18.3314 9.33196 15.4315C9.16458 14.9798 9.09882 14.491 8.98657 14.0194C9.0065 14.016 9.02643 14.0114 9.04702 14.0067Z" fill="#0074BD"/>
<path d="M21.7773 16.5412C21.3815 16.5412 21.0022 16.5412 20.5983 16.5412C20.5592 15.147 20.0783 13.9375 19.0919 12.9512C18.1036 11.9628 16.8934 11.4753 15.4819 11.4354C15.4819 11.0422 15.4819 10.6576 15.4819 10.2731C18.6011 10.101 21.855 12.9346 21.7773 16.5412Z" fill="#0074BD"/>
<path d="M19.521 16.5372C19.1185 16.5372 18.7333 16.5372 18.3514 16.5372C17.9668 14.6003 17.3989 14.0338 15.48 13.6751C15.48 13.2945 15.48 12.9106 15.48 12.5267C17.3484 12.3951 19.5416 14.0962 19.521 16.5372Z" fill="#0074BD"/>
</svg>
