<svg width="22" height="22" viewBox="0 0 22 22" fill="none" xmlns="http://www.w3.org/2000/svg">
<path d="M22 2.74993H3.8885L3.85 2.42819C3.77121 1.75942 3.44977 1.14281 2.94662 0.695253C2.44346 0.247698 1.79358 0.000313302 1.12017 0H0V1.83328H1.12017C1.34469 1.83331 1.56139 1.91574 1.72917 2.06493C1.89696 2.21413 2.00415 2.41971 2.03042 2.64268L3.48333 14.988C3.56212 15.6568 3.88356 16.2734 4.38672 16.721C4.88987 17.1685 5.53976 17.4159 6.21317 17.4162H18.3333V15.5829H6.21317C5.9885 15.5829 5.77168 15.5003 5.60388 15.3509C5.43608 15.2016 5.32898 14.9957 5.30292 14.7726L5.18283 13.7496H20.0163L22 2.74993Z" fill="#0074BD"/>
<path d="M6.4168 22C7.42932 22 8.25013 21.1792 8.25013 20.1667C8.25013 19.1542 7.42932 18.3334 6.4168 18.3334C5.40428 18.3334 4.58347 19.1542 4.58347 20.1667C4.58347 21.1792 5.40428 22 6.4168 22Z" fill="#0074BD"/>
<path d="M15.5833 22C16.5958 22 17.4167 21.1792 17.4167 20.1667C17.4167 19.1542 16.5958 18.3334 15.5833 18.3334C14.5708 18.3334 13.75 19.1542 13.75 20.1667C13.75 21.1792 14.5708 22 15.5833 22Z" fill="#0074BD"/>
</svg>
