<svg width="32" height="32" viewBox="0 0 32 32" fill="none" xmlns="http://www.w3.org/2000/svg">
<path d="M0 5.125C0 2.36357 2.23858 0.125 5 0.125H26.1884C28.9498 0.125 31.1883 2.36358 31.1883 5.125V26.3134C31.1883 29.0748 28.9498 31.3133 26.1883 31.3133H5C2.23857 31.3133 0 29.0748 0 26.3133V5.125Z" fill="white"/>
<path d="M9.43957 11.044C9.3353 10.9397 9.39538 10.7539 9.54028 10.7265C9.61959 10.7116 9.69309 10.7011 9.76659 10.7007C13.823 10.6961 17.8794 10.6961 21.9358 10.7007C22.01 10.7007 22.0842 10.7109 22.1624 10.7255C22.3119 10.7534 22.3758 10.9465 22.2682 11.054C20.303 13.0254 18.3378 14.9976 16.3719 16.9682C15.9737 17.3671 15.7472 17.3694 15.3568 16.979C13.3847 15.0007 11.4117 13.0223 9.43957 11.044Z" fill="#0074BD"/>
<path d="M17.9847 16.5792C19.355 17.9333 20.7053 19.2674 22.0787 20.6245C22.2415 20.7854 22.1556 21.0956 21.9267 21.0956C17.8811 21.1003 13.8347 21.1003 9.78913 21.0956C9.55755 21.0956 9.47129 20.7815 9.63601 20.6187C11.0114 19.2595 12.361 17.9262 13.7311 16.5723C14.0465 16.8885 14.4107 17.2541 14.7756 17.6198C15.4744 18.3195 16.2452 18.3187 16.9456 17.6175C17.3059 17.2572 17.6669 16.897 17.9847 16.5792Z" fill="#0074BD"/>
<path d="M8.92567 19.9357C8.76742 20.0924 8.4624 20.0119 8.4624 19.7892C8.45622 17.1993 8.45622 14.6095 8.4624 12.0189C8.46337 11.7858 8.77996 11.6995 8.94558 11.8635C10.3134 13.218 11.6649 14.5567 13.0105 15.889C11.6551 17.2323 10.297 18.5777 8.92567 19.9357Z" fill="#0074BD"/>
<path d="M18.7029 15.8765C20.0462 14.5459 21.3967 13.2088 22.7715 11.8468C22.9357 11.6842 23.2541 11.7653 23.2541 11.9964C23.261 14.5955 23.2602 17.1954 23.2548 19.7945C23.2539 20.0127 22.9586 20.0932 22.8036 19.9397C21.4356 18.5845 20.0761 17.2377 18.7029 15.8765Z" fill="#0074BD"/>
</svg>
