<svg width="263" height="40" viewBox="0 0 263 40" fill="none" xmlns="http://www.w3.org/2000/svg">
<path d="M240.806 39.4648C227.349 39.4648 220.491 29.9699 214.448 21.5801C208.55 13.4874 203.002 5.79091 192.159 5.78328C181.269 5.79091 175.745 13.434 169.877 21.5877C163.849 29.9776 156.945 39.4877 143.526 39.4495C130.031 39.4877 123.157 29.9319 117.122 21.5496C111.277 13.4797 105.715 5.79853 94.8405 5.8214C83.9664 5.7833 78.4493 13.4493 72.597 21.5877C66.4779 29.9623 59.6578 39.4953 46.2004 39.4953C32.7431 39.4953 25.9153 29.9699 19.8039 21.5877C13.982 13.495 8.41164 5.77566 -2.47769 5.78328L-2.44722 0.708203C11.0101 0.708211 17.8379 10.2335 23.9493 18.6158C29.7788 26.7161 35.3187 34.4049 46.2004 34.3745C57.0669 34.4202 62.6144 26.7237 68.4439 18.6082C74.5249 10.1954 81.3831 0.700588 94.8328 0.708208C108.29 0.708208 115.164 10.1878 121.237 18.6082C127.089 26.7466 132.629 34.4202 143.519 34.4126C154.355 34.4278 159.91 26.7237 165.77 18.6386C171.843 10.2335 178.717 0.753927 192.159 0.738684C205.578 0.70059 212.474 10.2335 218.525 18.6158C224.408 26.7694 229.917 34.4278 240.814 34.4126C248.998 34.4583 254.157 30.0461 258.714 24.4529L262.311 28.0496C257.197 34.1687 250.819 39.4648 240.814 39.4572" fill="#C4161C"/>
</svg>
