<svg width="40" height="30" viewBox="0 0 40 30" fill="none" xmlns="http://www.w3.org/2000/svg">
<path d="M22.6758 29.0432C22.6758 26.1111 22.6758 23.3106 22.6758 20.3994C23.4762 20.3994 24.2536 20.4537 25.0164 20.3785C25.4386 20.3367 26.0279 20.182 26.193 19.8832C26.3498 19.6031 26.1659 18.9887 25.9339 18.6585C24.2933 16.3157 22.6047 14.0064 20.9244 11.6929C20.2557 10.7712 19.6997 10.7608 19.0414 11.6678C17.3444 14.0022 15.6433 16.3345 13.986 18.6961C13.7665 19.0096 13.5931 19.5802 13.7352 19.8623C13.8794 20.1507 14.429 20.3388 14.8219 20.3764C15.614 20.4537 16.4207 20.3994 17.265 20.3994C17.265 23.3043 17.265 26.1257 17.265 29.0432C16.9641 29.0432 16.6882 29.0432 16.4102 29.0432C13.7561 29.0432 11.0977 28.9617 8.44567 29.062C4.45397 29.2146 0.846814 26.063 0.14879 22.0128C-0.44056 18.5958 0.727691 15.8267 3.53233 13.7828C3.89179 13.5195 3.96493 13.3063 3.87089 12.8925C2.92835 8.74614 6.40593 5.23512 10.5335 6.17975C11.0162 6.29052 11.2022 6.16304 11.43 5.7576C13.825 1.49004 18.2891 -0.627024 23.1585 0.162956C27.6058 0.883969 31.2527 4.58099 32.074 9.2519C32.1743 9.82662 32.3896 10.0356 32.958 10.1798C37.3468 11.2937 40.5172 15.9981 39.9299 20.4558C39.2716 25.4507 35.3719 29.0411 30.6027 29.0432C28.2599 29.0453 25.9172 29.0432 23.5744 29.0432C23.2923 29.0432 23.0101 29.0432 22.6758 29.0432Z" fill="#0074BD"/>
</svg>
