<svg width="12" height="12" viewBox="0 0 12 12" fill="none" xmlns="http://www.w3.org/2000/svg">
<g clip-path="url(#clip0_71_5368)">
<path d="M11.9999 5.62541V6.37579C11.977 6.54535 11.9578 6.7161 11.9326 6.88446C11.7318 8.21926 11.156 9.37008 10.181 10.2984C8.71677 11.6922 6.96882 12.2333 4.97323 11.9062C3.50058 11.6657 2.28399 10.9442 1.34991 9.78375C0.146544 8.28901 -0.242957 6.58142 0.14414 4.70308C0.622601 2.37379 2.61098 0.474998 4.9552 0.0925945C5.1776 0.0565187 5.4024 0.0300631 5.62601 0C5.87606 0 6.12611 0 6.37616 0C6.40621 0.00601263 6.43627 0.0144303 6.46632 0.0192404C6.8426 0.0841768 7.2309 0.108227 7.59275 0.21886C9.96221 0.948793 11.406 2.53372 11.9085 4.96643C11.953 5.18288 11.971 5.40535 12.0011 5.62541H11.9999ZM6.00108 0.839363C3.15195 0.839363 0.838991 3.15302 0.840193 6.0018C0.842597 8.84818 3.14354 11.1534 5.99267 11.1618C8.83819 11.1703 11.1548 8.8578 11.1596 6.00421C11.1644 3.15543 8.85141 0.840565 6.00108 0.839363Z" fill="#0074BD"/>
<path d="M5.8352 2.98948C6.24634 2.99189 6.5601 3.0436 6.85463 3.18309C7.56391 3.5198 7.80434 4.24853 7.43408 4.93998C7.27299 5.24181 7.03977 5.48112 6.7777 5.69396C6.73802 5.72643 6.69955 5.7577 6.65868 5.78896C6.40142 5.98978 6.2788 6.25194 6.28 6.58143C6.2812 6.9506 6.13935 7.07446 5.76908 7.0468C5.5022 7.02636 5.40723 6.92655 5.38799 6.65598C5.34472 6.05111 5.54908 5.5665 6.04798 5.20454C6.20426 5.0915 6.34732 4.95321 6.47475 4.8077C6.60098 4.6646 6.64426 4.48302 6.59497 4.29182C6.53726 4.06695 6.3341 3.92264 6.03235 3.89378C5.6681 3.85891 5.36515 3.9503 5.16079 4.28701C5.02975 4.50346 4.87227 4.54315 4.65227 4.45656C4.45151 4.3772 4.34812 4.20403 4.37818 3.98036C4.42025 3.65689 4.61741 3.43562 4.87707 3.26486C5.19445 3.05803 5.55149 2.98828 5.8364 2.98828L5.8352 2.98948Z" fill="#0074BD"/>
<path d="M5.22461 8.19997C5.22461 7.86446 5.4939 7.59389 5.82329 7.5951C6.15869 7.5951 6.43038 7.87288 6.42678 8.20959C6.42317 8.53908 6.14667 8.81325 5.81968 8.81085C5.4927 8.80965 5.22341 8.53307 5.22461 8.19997Z" fill="#0074BD"/>
</g>
<defs>
<clipPath id="clip0_71_5368">
<rect width="12" height="12" fill="white"/>
</clipPath>
</defs>
</svg>
