<svg width="32" height="32" viewBox="0 0 32 32" fill="none" xmlns="http://www.w3.org/2000/svg">
<path d="M0 5C0 2.23857 2.23858 0 5 0H26.1884C28.9498 0 31.1883 2.23858 31.1883 5V26.1884C31.1883 28.9498 28.9498 31.1883 26.1883 31.1883H5C2.23857 31.1883 0 28.9498 0 26.1883V5Z" fill="white"/>
<path d="M9.51514 13.5528C9.52219 9.92827 12.0491 7.17479 15.3774 6.89266C18.6008 6.61934 21.5659 8.97429 22.0975 12.2427C22.3691 13.9152 21.9697 15.4819 21.2732 16.9852C20.0803 19.5641 18.2922 21.696 16.2503 23.6321C15.9902 23.879 15.7292 23.8967 15.4841 23.663C13.13 21.4209 11.0757 18.9628 9.96744 15.8373C9.6756 15.0129 9.52043 14.1594 9.51514 13.5528ZM15.8165 16.7516C17.7703 16.7665 19.3467 15.2095 19.3573 13.2539C19.3679 11.3063 17.8311 9.73342 15.8958 9.71049C13.9394 9.68757 12.3568 11.2367 12.3383 13.1905C12.3206 15.1531 13.8671 16.7357 15.8165 16.7516Z" fill="#0074BD"/>
</svg>
