<svg width="29" height="30" viewBox="0 0 29 30" fill="none" xmlns="http://www.w3.org/2000/svg">
<rect width="29" height="30" rx="5" fill="#C4161C"/>
<path d="M21 25H8.04948V22.4383H20.9876L21 25ZM16.9677 17.2764H8V14.7663H16.9677V17.2764ZM12.96 11.6253L13.2445 19.6064C13.2528 20.4302 13.1085 21.1682 12.8116 21.8205C12.523 22.4641 12.0447 22.9704 11.3768 23.3394L9.12559 22.4383C9.39772 22.3697 9.60387 22.1895 9.74405 21.8977C9.89248 21.5973 9.99144 21.2498 10.0409 20.855C10.0986 20.4517 10.1275 20.0741 10.1275 19.7222L9.86775 11.6253C9.86775 10.4411 10.1028 9.4327 10.5728 8.60027C11.0511 7.75926 11.7066 7.11563 12.5395 6.66938C13.3723 6.22313 14.3289 6 15.4091 6C16.5553 6 17.5284 6.21883 18.3283 6.6565C19.1281 7.09417 19.7383 7.70348 20.1589 8.48442C20.5794 9.25677 20.7897 10.1579 20.7897 11.1877H17.7964C17.7964 10.544 17.6809 10.0334 17.45 9.65583C17.2192 9.26965 16.9141 8.99074 16.5347 8.81911C16.1637 8.64747 15.7596 8.56165 15.3225 8.56165C14.8773 8.56165 14.4732 8.67751 14.1104 8.90921C13.7558 9.14092 13.4754 9.48419 13.2693 9.93902C13.0631 10.3939 12.96 10.956 12.96 11.6253Z" fill="white"/>
</svg>
