<svg width="103" height="59" viewBox="0 0 103 59" fill="none" xmlns="http://www.w3.org/2000/svg">
<path d="M0 10C0 4.47715 4.47715 0 10 0H93C98.5229 0 103 4.47715 103 10V49C103 54.5228 98.5229 59 93 59H10C4.47715 59 0 54.5228 0 49V10Z" fill="#F2F2F2"/>
<path d="M39.4469 27.8781H37.2344V20.9969L34.1031 27.8781H32.1531L29.0219 20.9969V27.8781H24.5969L23.6875 26.0031H19.2531L18.475 28H16L19.9094 19.1219H23.1625L26.8094 27.5031V19.1219H30.325L33.1937 25.1219L35.8 19.1219H39.4469V27.8781ZM48.3062 20.9969H43.225V22.6281H48.175V24.3719H43.225V26.125H48.3062V28H41.0125V19.1219H48.3062V20.9969ZM58.075 24.625C58.3375 25.1219 58.4687 25.4969 58.4687 26.2469V28H56.2469V26.875C56.2469 26.3781 56.2469 25.6281 55.8625 25.1219C55.4687 24.7469 55.075 24.7469 54.2969 24.7469H51.9531V28H49.7406V19.1219H54.6906C55.8625 19.1219 56.6406 19.1219 57.2969 19.4969C57.9437 19.8719 58.3375 20.5 58.3375 21.5031C58.3375 22.8719 57.4187 23.6219 56.7719 23.875C57.4187 23.9969 57.8125 24.3719 58.075 24.625ZM61.9844 27.8781H59.7719V19H61.9844V27.8781ZM87.6437 27.8781H84.5219L80.35 21.25V27.8781H75.925L75.1375 26.0031H70.5812L69.7937 28H67.3187C66.2781 28 64.975 27.7469 64.1969 26.9969C63.4187 26.2469 63.025 25.2531 63.025 23.6219C63.025 22.375 63.2875 21.1281 64.1969 20.125C64.8437 19.375 66.025 19.1219 67.45 19.1219H69.5406V20.9969H67.45C66.6719 20.9969 66.2781 21.1281 65.7625 21.5031C65.3687 21.8781 65.1062 22.6281 65.1062 23.5C65.1062 24.5031 65.2375 25.1219 65.7625 25.6281C66.1469 26.0031 66.6719 26.125 67.3187 26.125H68.2375L71.2281 19.2531H74.4906L78.1375 27.625V19.2531H81.3906L85.1687 25.375V19.2531H87.3812V27.8781H87.6437ZM48.4937 40H45.8969V43H41.725L39.1187 40.1219L36.3813 43H27.7844V34.1219H36.5125L39.1187 37L41.8563 34.1219H48.7562C50.4531 34.1219 52.4031 34.6281 52.4031 37C52.2719 39.5031 50.4531 40 48.4937 40ZM61.525 39.5031C61.7875 39.8781 61.9187 40.375 61.9187 41.125V42.8781H59.6969V41.7531C59.6969 41.2469 59.6969 40.375 59.3125 40C59.05 39.625 58.525 39.625 57.7469 39.625H55.4031V42.8781H53.1906V34H58.1406C59.1812 34 60.0906 34 60.7469 34.375C61.3937 34.75 61.9187 35.3781 61.9187 36.3719C61.9187 37.75 61 38.5 60.3531 38.7531C61 38.9969 61.3937 39.25 61.525 39.5031ZM70.5156 35.875H65.4344V37.4969H70.3844V39.25H65.4344V41.0031H70.5156V42.8781H63.2219V34H70.5156V35.875ZM75.9812 42.8781H71.8187V41.0031H75.9812C76.375 41.0031 76.6375 41.0031 76.8906 40.75C77.0219 40.6281 77.1531 40.375 77.1531 40.1219C77.1531 39.8781 77.0219 39.625 76.8906 39.5031C76.7687 39.3719 76.5063 39.25 76.1125 39.25C74.0312 39.1281 71.5562 39.25 71.5562 36.5031C71.5562 35.2469 72.3344 33.8781 74.6781 33.8781H78.9812V35.9969H74.9406C74.5469 35.9969 74.2937 35.9969 74.0312 36.1281C73.7687 36.25 73.7687 36.5031 73.7687 36.7469C73.7687 37.1219 74.0312 37.2531 74.2937 37.375C74.5469 37.4969 74.8094 37.4969 75.0719 37.4969H76.2437C77.4156 37.4969 78.1937 37.75 78.7187 38.2469C79.1125 38.6219 79.3656 39.25 79.3656 40.1219C79.3656 41.9969 78.1937 42.8781 75.9812 42.8781ZM84.6156 42.8781H80.4437V41.0031H84.6156C85 41.0031 85.2625 41.0031 85.525 40.75C85.6562 40.6281 85.7875 40.375 85.7875 40.1219C85.7875 39.8781 85.6562 39.625 85.525 39.5031C85.3937 39.3719 85.1312 39.25 84.7469 39.25C82.6562 39.1281 80.1812 39.25 80.1812 36.5031C80.1812 35.2469 80.9688 33.8781 83.3125 33.8781H87.6062V35.9969H83.575C83.1813 35.9969 82.9187 35.9969 82.6562 36.1281C82.4031 36.25 82.4031 36.5031 82.4031 36.7469C82.4031 37.1219 82.6562 37.2531 82.9187 37.375C83.1813 37.4969 83.4437 37.4969 83.6969 37.4969H84.8781C86.05 37.4969 86.8281 37.75 87.3531 38.2469C87.7375 38.6219 88 39.25 88 40.1219C88 41.9969 86.8281 42.8781 84.6156 42.8781ZM20.0406 24.1281H22.9L21.475 20.6219L20.0406 24.1281ZM55.6 21.1281C55.3375 20.9969 54.9437 20.9969 54.5594 20.9969H51.9531V23.0031H54.5594C54.9437 23.0031 55.3375 23.0031 55.6 22.8719C55.8625 22.75 55.9937 22.375 55.9937 22C56.125 21.5031 55.8625 21.25 55.6 21.1281ZM71.3594 24.1281H74.3594L72.925 20.6219L71.3594 24.1281ZM29.7437 35.875V37.4969H34.5625V39.25H29.7437V41.125H35.0781L37.5531 38.5L35.2094 35.875H29.7437ZM43.675 42.1281V35.0031L40.2906 38.5L43.675 42.1281ZM49.5719 36.1281C49.3094 35.9969 48.925 35.9969 48.5312 35.9969H45.925V38.0031H48.5312C48.925 38.0031 49.3094 38.0031 49.5719 37.8719C49.8344 37.75 49.9656 37.375 49.9656 37C50.0969 36.5031 49.8344 36.25 49.5719 36.1281ZM59.1812 36.1281C58.9187 35.9969 58.525 35.9969 58.1406 35.9969H55.5344V38.0031H58.1406C58.525 38.0031 58.9187 38.0031 59.1812 37.8719C59.4437 37.75 59.575 37.375 59.575 37C59.6969 36.5031 59.4437 36.25 59.1812 36.1281Z" fill="#012169"/>
</svg>
