<svg width="103" height="59" viewBox="0 0 103 59" fill="none" xmlns="http://www.w3.org/2000/svg">
<path d="M0 10C0 4.47715 4.47715 0 10 0H93C98.5229 0 103 4.47715 103 10V49C103 54.5228 98.5229 59 93 59H10C4.47715 59 0 54.5228 0 49V10Z" fill="#F2F2F2"/>
<path d="M41.18 39.5579L44.8067 19.6632H50.4733L46.96 39.5579H41.18ZM67.4733 19.8842L66.5667 24.1947L66 23.9737C64.98 23.5316 63.62 23.2 61.6933 23.2C59.4267 23.2 58.4067 24.0842 58.4067 24.9684C58.4067 25.9632 59.6533 26.5158 61.6933 27.5105C65.0933 28.9474 66.5667 30.7158 66.5667 33.0368C66.5667 37.2368 62.6 40 56.5933 40C53.9867 40 51.4933 39.4474 50.1333 38.8947L50.9267 34.3632L51.72 34.6947C53.6467 35.4684 54.8933 35.8 57.16 35.8C58.7467 35.8 60.56 35.1368 60.56 33.8105C60.56 32.9263 59.88 32.2632 57.6133 31.2684C55.3467 30.2737 52.5133 28.7263 52.5133 25.7421C52.5133 21.7632 56.5933 19 62.26 19C64.5267 19 66.34 19.4421 67.4733 19.8842ZM77.22 19.6632C75.86 19.6632 74.84 19.7737 74.2733 21.1L65.7733 39.5579H71.8933L73.0267 36.2421H80.28L80.96 39.5579H86.4L81.64 19.6632H77.22ZM22.3253 22.2339C20.4791 21.2242 18.3683 20.421 16.02 19.8842L15 19.6632H25.54C26.7867 19.6632 27.8067 19.9947 28.1467 21.3211L30.1867 30.7158L30.7533 33.5895L36.5333 19.7737H42.6533L33.4733 39.6684H27.3533L22.3253 22.2339ZM74.6133 32.9263C74.9533 31.9316 76.88 27.0684 76.88 27.0684C76.88 27.0684 77.3333 25.8526 77.6733 25.0789L78.0133 26.9579C78.0133 26.9579 79.1467 31.9316 79.3733 33.0368H74.6133V32.9263Z" fill="#012169"/>
</svg>
