<svg width="103" height="59" viewBox="0 0 103 59" fill="none" xmlns="http://www.w3.org/2000/svg">
<path d="M0 10C0 4.47715 4.47715 0 10 0H93C98.5229 0 103 4.47715 103 10V54C103 56.7614 100.761 59 98 59H10C4.47715 59 0 54.5228 0 49V10Z" fill="#F2F2F2"/>
<path d="M78.1988 29.9902C78.1988 38.2388 71.3673 44.9804 62.8279 44.9804C54.3699 44.9804 47.457 38.2388 47.457 29.9902C47.457 21.7416 54.2885 15 62.7466 15C71.3673 15 78.1988 21.7416 78.1988 29.9902Z" fill="#FFB600"/>
<path d="M54.7418 30.0097C54.7418 38.2583 47.9103 44.9999 39.3709 44.9999C30.9128 44.9999 24 38.2583 24 30.0097C24 21.7612 30.8315 15.0195 39.2896 15.0195C47.9103 15.0195 54.7418 21.7612 54.7418 30.0097Z" fill="#E92039"/>
<path d="M46.4598 34.2853L46.6958 33.0044C46.6171 33.0044 46.4598 33.0797 46.3025 33.0797C45.752 33.0797 45.6734 32.7783 45.752 32.6276L46.2239 29.9905H47.089L47.3249 28.5589H46.5385L46.6958 27.6547H45.1229C45.1229 27.6547 44.1791 32.6276 44.1791 33.2304C44.1791 34.1346 44.7296 34.5113 45.4374 34.5113C45.9093 34.5113 46.3025 34.3606 46.4598 34.2853ZM47.0104 31.8742C47.0104 33.9839 48.5046 34.5113 49.7629 34.5113C50.9426 34.5113 51.4145 34.2853 51.4145 34.2853L51.7291 32.8537C51.7291 32.8537 50.864 33.2304 50.0775 33.2304C48.3473 33.2304 48.6619 32.0248 48.6619 32.0248H51.8864C51.8864 32.0248 52.1223 31.0453 52.1223 30.6686C52.1223 29.6891 51.5718 28.4835 49.8416 28.4835C48.19 28.3328 47.0104 29.9905 47.0104 31.8742ZM49.7629 29.6891C50.628 29.6891 50.4708 30.6686 50.4708 30.7439H48.7406C48.7406 30.6686 48.8978 29.6891 49.7629 29.6891ZM59.7509 34.2853C59.7509 34.2853 58.8858 34.5113 58.2567 34.5113C56.3692 34.5113 55.4254 33.2304 55.4254 31.3467C55.4254 28.4835 57.2343 26.9766 59.0431 26.9766C59.9082 26.9766 60.852 27.3533 60.852 27.3533L60.616 28.9356C60.616 28.9356 59.9869 28.4835 59.2004 28.4835C58.0994 28.4835 57.1556 29.463 57.1556 31.2714C57.1556 32.1755 57.6275 33.0044 58.7285 33.0044C59.2791 33.0044 60.0655 32.6276 60.0655 32.6276L59.7509 34.2853ZM37.8088 28.3328C36.7078 28.3328 35.9213 28.6342 35.9213 28.6342L35.6854 29.9151C35.6854 29.9151 36.3932 29.6137 37.4156 29.6137C37.9661 29.6137 38.438 29.6891 38.438 30.1412C38.438 30.4425 38.3593 30.5179 38.3593 30.5179C38.3593 30.5179 37.8875 30.5179 37.6515 30.5179C36.3146 30.5179 34.8203 31.0453 34.8203 32.7783C34.8203 34.1346 35.764 34.436 36.3146 34.436C37.4156 34.436 37.8875 33.7578 37.9661 33.7578L37.8875 34.3606H39.3031L39.9323 30.2165C39.9323 28.4082 38.3593 28.3328 37.8088 28.3328ZM38.1234 31.7235C38.1234 31.9495 37.9661 33.1551 37.0224 33.1551C36.5505 33.1551 36.3932 32.7783 36.3932 32.5523C36.3932 32.1755 36.6291 31.6481 37.8088 31.6481C38.0448 31.7235 38.1234 31.7235 38.1234 31.7235ZM41.4265 34.436C40.0895 34.436 39.6963 34.2853 39.6177 34.1346L39.8536 32.7783C39.8536 32.7783 40.5614 33.0044 41.2692 33.0044C41.6625 33.0044 42.213 32.929 42.213 32.4769C42.213 31.7988 40.2468 31.9495 40.2468 30.2165C40.2468 28.7096 41.4265 28.2575 42.6062 28.2575C43.5499 28.2575 44.1005 28.4082 44.1005 28.4082L43.8645 29.7644C43.8645 29.7644 42.9994 29.6891 42.7635 29.6891C42.213 29.6891 41.8984 29.8398 41.8984 30.2165C41.8984 30.97 43.7859 30.5932 43.7859 32.4769C43.7859 34.5113 41.8197 34.436 41.4265 34.436ZM72.8061 27.1273L72.4915 29.1616C72.4915 29.1616 71.8623 28.4082 70.9972 28.4082C69.5816 28.4082 68.3233 30.0658 68.3233 32.0248C68.3233 33.2304 68.9525 34.5113 70.2894 34.5113C71.2332 34.5113 71.7837 33.9085 71.7837 33.9085L71.7051 34.436H73.278L74.4577 27.2026L72.8061 27.1273ZM72.0983 31.1207C72.0983 31.9495 71.7051 33.0044 70.84 33.0044C70.2894 33.0044 69.9749 32.5523 69.9749 31.7988C69.9749 30.5932 70.5254 29.8398 71.2332 29.8398C71.7837 29.8398 72.0983 30.2165 72.0983 31.1207ZM29.2365 34.3606H27.7422L29.0005 27.1273H31.2812L31.3599 31.5728L32.9328 27.1273H35.5281L34.2698 34.3606H32.6182L33.4833 28.9356L31.4385 34.3606H30.3375L30.1802 28.9356L29.2365 34.3606ZM53.6166 34.3606V34.436H51.8864L52.9088 28.5589H54.403L54.2457 29.3877C54.2457 29.3877 54.7963 28.4835 55.5041 28.4835C55.74 28.4835 55.8187 28.4835 55.8187 28.4835C55.6614 28.8603 55.4254 29.237 55.2681 30.2165C54.1671 29.8398 54.0885 31.8742 53.6166 34.3606ZM66.829 34.3606V34.436H65.0988L66.1212 28.5589H67.6155L67.4582 29.3877C67.4582 29.3877 68.0087 28.4835 68.7165 28.4835C68.9525 28.4835 69.0311 28.4835 69.0311 28.4835C68.8738 28.8603 68.6379 29.237 68.4806 30.2165C67.3796 29.8398 67.3009 31.8742 66.829 34.3606ZM63.3686 28.3328C62.2676 28.3328 61.4811 28.6342 61.4811 28.6342L61.2452 29.9151C61.2452 29.9151 61.953 29.6137 62.9754 29.6137C63.5259 29.6137 63.9978 29.6891 63.9978 30.1412C63.9978 30.4425 63.9191 30.5179 63.9191 30.5179C63.9191 30.5179 63.4473 30.5179 63.2113 30.5179C61.8744 30.5179 60.3801 31.0453 60.3801 32.7783C60.3801 34.1346 61.3238 34.436 61.8744 34.436C62.9754 34.436 63.4473 33.7578 63.5259 33.7578L63.4473 34.3606H64.8629L65.4921 30.2165C65.5707 28.4082 63.9191 28.3328 63.3686 28.3328ZM63.7619 31.7235C63.7619 31.9495 63.6046 33.1551 62.6608 33.1551C62.1889 33.1551 62.0317 32.7783 62.0317 32.5523C62.0317 32.1755 62.2676 31.6481 63.4473 31.6481C63.6832 31.7235 63.6832 31.7235 63.7619 31.7235Z" fill="white"/>
</svg>
