<svg width="103" height="59" viewBox="0 0 103 59" fill="none" xmlns="http://www.w3.org/2000/svg">
<path d="M0 10C0 4.47715 4.47715 0 10 0H93C98.5229 0 103 4.47715 103 10V49C103 54.5228 98.5229 59 93 59H10C4.47715 59 0 54.5228 0 49V10Z" fill="#F2F2F2"/>
<path d="M33.9125 42.2697V42.4659H32.1729C32.0684 42.1121 32.0079 41.7253 32.0079 40.948C32.0079 39.9197 31.9437 39.5237 30.7797 39.5237H29.1574V42.4659H27.6139V34.9427H31.4195C33.4213 34.9427 33.786 36.4239 33.786 37.0691C33.786 37.8995 33.3663 38.609 32.622 38.8638C33.2416 39.1332 33.5771 39.3624 33.5771 40.7684C33.5789 41.8738 33.5789 42.1451 33.9125 42.2697ZM32.2151 37.2286C32.2151 36.8308 32.0354 36.2442 31.1152 36.2442H29.1574V38.2607H30.9979C31.8173 38.2607 32.2151 37.9747 32.2151 37.2286ZM38.8895 34.9445L41.5384 42.4677H39.8299L39.3459 40.9169H36.5706L36.0481 42.4677H34.391L37.0729 34.9445H38.8895ZM38.9097 39.6209L37.9711 36.6457H37.9583L36.9922 39.6209H38.9097ZM20.5582 36.2772H22.8312V42.4677H24.3986V36.2772H26.6753V34.9445H20.5563L20.5582 36.2772ZM57.1237 42.4714H58.6946V39.3056H62.0035V37.9729H58.6946V36.2754H62.4746V34.9409H57.1218L57.1237 42.4714ZM65.0721 39.1901H68.7384V37.8574H65.0721V36.2754H69.0647V34.9427H63.5323V42.4659H69.2425V41.1332H65.0721V39.1901ZM47.1423 40.1873H47.1239L44.1341 34.9464H42.4806V42.4695H43.9453V37.1058H43.9673L47.0359 42.4695H48.6106V34.9464H47.1423V40.1873ZM53.9468 38.1855L52.1174 37.7346C51.8021 37.6631 51.3163 37.5366 51.3163 36.95C51.3163 36.2662 52.0349 36.0481 52.627 36.0481C54.0018 36.0481 54.1228 36.8492 54.1723 37.1791H55.6736C55.6627 36.2589 55.0467 34.7484 52.7388 34.7484C50.2989 34.7484 49.8516 36.2296 49.8516 37.0673C49.8516 38.7226 51.023 38.9939 52.2402 39.2762L53.0431 39.4669C53.8442 39.6575 54.407 39.8115 54.407 40.3981C54.407 41.1973 53.5765 41.3715 52.8378 41.3715C51.4629 41.3715 51.2521 40.5741 51.2411 40.158H49.7416C49.7416 41.0892 50.2109 42.6712 52.9569 42.6712C53.6132 42.6712 55.9211 42.4714 55.9211 40.2093C55.9211 38.8583 54.9789 38.4367 53.9468 38.1855ZM76.8225 42.2697V42.4659H75.0865C74.982 42.1121 74.9215 41.7253 74.9215 40.948C74.9215 39.9197 74.8537 39.5237 73.6933 39.5237H72.071V42.4659H70.5275V34.9427H74.3294C76.3312 34.9427 76.6997 36.4239 76.6997 37.0691C76.6997 37.8995 76.2781 38.609 75.532 38.8638C76.1479 39.1332 76.487 39.3624 76.487 40.7684C76.4889 41.8738 76.4889 42.1451 76.8225 42.2697ZM75.1287 37.2286C75.1287 36.8308 74.949 36.2442 74.0251 36.2442H72.071V38.2607H73.9115C74.7309 38.2607 75.1287 37.9747 75.1287 37.2286ZM70.3277 29.0651V31.6651H59.3563V17.0085H69.9875V19.5999H62.3191V22.6791H69.3625V25.2689H62.3191V29.0651H70.3277ZM41.9968 17V31.6566H38.9787V17H41.9968ZM28.1783 20.2304H28.1397C27.694 23.0479 27.456 24.1099 25.9042 31.6634H23.0856L19 17.0068H22.2175C24.0693 25.0292 24.2536 26.0505 24.515 27.7244H24.5552C24.8167 26.1916 25.0362 24.7013 26.5679 17.0068H29.7686C31.4578 25.0513 31.6019 25.8279 31.922 27.7244H31.9622C32.2035 26.3343 32.4432 25.0666 34.3184 17.0068H37.38L33.3112 31.6634H30.4138C28.924 24.4753 28.6592 23.0445 28.1783 20.2304ZM53.2514 28.7015C53.2514 26.698 53.1308 25.9214 50.8986 25.9214H47.78V31.6617H44.8172V17.0051H52.1219C55.9679 17.0051 56.6751 19.8803 56.6751 21.148C56.6751 22.7573 55.8707 24.149 54.4396 24.6367C55.6277 25.1669 56.2695 25.6189 56.2695 28.3548C56.2695 30.4976 56.2695 31.0295 56.9147 31.2742V31.6634H53.5765C53.3738 30.9649 53.2514 30.2071 53.2514 28.7015ZM72.846 20.9144L77.6675 24.6491L72.846 28.3839V20.9144ZM80.1786 20.9144L85 24.6491L80.1786 28.3839V20.9144ZM53.6553 21.4522C53.6553 20.6756 53.3151 19.5337 51.5405 19.5337H47.78V23.4557H51.3176C52.8895 23.454 53.6553 22.9017 53.6553 21.4522Z" fill="#012169"/>
</svg>
