<svg width="103" height="59" viewBox="0 0 103 59" fill="none" xmlns="http://www.w3.org/2000/svg">
<path d="M0 10C0 4.47715 4.47715 0 10 0H93C98.5229 0 103 4.47715 103 10V49C103 54.5228 98.5229 59 93 59H10C4.47715 59 0 54.5228 0 49V10Z" fill="#F2F2F2"/>
<path d="M60.188 30.4691C60.1984 28.8364 59.5577 27.1933 58.2763 25.9636C56.9949 24.7235 55.2898 24.1138 53.5847 24.1242C53.5744 24.1242 53.564 24.1242 53.5537 24.1242C49.8542 24.1242 46.9297 26.9453 46.9297 30.5001C46.9297 34.024 49.8955 36.8761 53.5537 36.8761C57.2532 36.8761 60.188 34.055 60.188 30.5001C60.188 30.4898 60.188 30.4795 60.188 30.4691Z" fill="#F26E21"/>
<path d="M45.6891 33.1971V33.3211C45.7304 33.2798 45.6477 33.2385 45.6891 33.1971L45.7821 36.0183C44.635 36.5143 43.736 36.752 42.7129 36.752C42.6923 36.752 42.6716 36.752 42.6406 36.752C42.6199 36.752 42.6096 36.752 42.5889 36.752C38.8894 36.752 35.9546 34.0548 35.9546 30.5C35.9546 29.0946 36.4713 27.7822 37.329 26.7178C37.608 26.3458 37.9283 26.0254 38.2694 25.7361C39.4371 24.744 40.9665 24.1137 42.5889 24C43.736 24 44.635 24.248 45.6477 24.7337V27.5548C44.635 26.5731 43.736 26.2114 42.5889 26.2114C41.5245 26.2114 40.6048 26.6351 39.8814 27.2862C39.1167 28.1439 38.631 29.1463 38.631 30.376C38.631 32.8148 40.3981 34.5199 42.8059 34.5405C43.7876 34.5199 44.697 34.1479 45.6891 33.1971ZM68.5579 25.7568L69.1159 24.496H71.7924L66.3051 36.876H64.9101L59.6811 24.496H62.3576L65.6748 32.5874L68.5579 25.7568ZM72.8155 29.8903V24.496H79.8322V26.5731H75.3679V29.1463H79.6978V31.2337H75.3679V34.5509H79.8322V36.504H72.8155V29.8903ZM15.1732 24.496H11.5977V36.504H15.1732C17.0849 36.504 18.4903 36.0183 19.6374 35.1606C21.0325 34.0549 21.9315 32.3394 21.9315 30.5C21.9315 26.9452 19.255 24.496 15.1732 24.496ZM18.108 33.5692C17.3329 34.1789 16.3202 34.5509 14.7908 34.5509H14.0261V26.5731H14.6565C16.1859 26.5731 17.2089 26.8211 17.9737 27.5548C18.8727 28.2886 19.3791 29.3943 19.3791 30.5C19.5031 31.6057 18.9967 32.8251 18.108 33.5692ZM23.0786 24.4857H25.4967V36.504H23.0786V24.4857ZM31.6247 29.1463C34.4252 30.128 35.1899 30.9857 35.1899 33.0731C35.1899 35.4086 33.4021 37 30.86 37C29.0722 37 27.6668 36.2663 26.5198 34.6645L28.0492 33.1971C28.5555 34.1789 29.5786 34.7886 30.7256 34.7886C31.8727 34.7886 32.6374 34.0548 32.6374 33.0731C32.6374 32.5874 32.3894 32.0914 31.8727 31.8537C31.6247 31.6057 31.2423 31.4817 30.2193 31.1097C27.9252 30.252 27.1605 29.5183 27.1605 27.8029C27.1605 25.8394 28.9379 24.372 31.108 24.372C32.5134 24.372 33.7845 24.8577 34.8075 25.7154L33.5364 27.3068C32.8957 26.5731 32.2551 26.3355 31.4903 26.3355C30.4776 26.3355 29.7129 26.9452 29.7129 27.6789C29.7129 28.2886 30.0953 28.6606 31.6247 29.1463ZM86.7145 31.4817C88.6263 31.1097 89.6493 29.8903 89.6493 28.0509C89.6493 25.8394 87.9856 24.496 85.1851 24.496H81.4856V36.504H83.914V31.7297H84.2964L87.7376 36.504H90.6724L86.7145 31.4817ZM84.6787 30.004H83.914V26.3355H84.6787C86.2082 26.3355 87.0969 26.9452 87.0969 28.1749C87.0969 29.3943 86.2082 30.004 84.6787 30.004Z" fill="#012169"/>
</svg>
