<svg width="103" height="59" viewBox="0 0 103 59" fill="none" xmlns="http://www.w3.org/2000/svg">
<path d="M0 10C0 4.47715 4.47715 0 10 0H93C98.5229 0 103 4.47715 103 10V49C103 54.5228 98.5229 59 93 59H10C4.47715 59 0 54.5228 0 49V10Z" fill="#F2F2F2"/>
<path d="M24.9432 36.2701H23V34.9746H28.5057V36.2701H26.5625V42.0996H24.9432V36.2701Z" fill="#012169"/>
<path d="M30.4492 34.9744C30.935 34.8125 31.7447 34.8125 32.5543 34.8125C33.6879 34.8125 34.3356 34.9744 34.8214 35.2983C35.3072 35.7841 35.631 36.2699 35.631 36.9176C35.631 37.8892 34.9833 38.5369 34.3356 38.6989C34.8214 38.8608 35.1452 39.3466 35.3072 39.9943C35.4691 40.804 35.793 41.7756 35.9549 42.0994H34.3356C34.1736 41.9375 34.0117 41.2898 33.8498 40.4801C33.6879 39.5085 33.364 39.3466 32.7163 39.3466H32.0685V42.0994H30.4492V34.9744ZM32.0685 38.0511H32.7163C33.5259 38.0511 34.0117 37.5653 34.0117 37.0795C34.0117 36.4318 33.5259 36.108 32.8782 36.108C32.5543 36.108 32.2305 36.108 32.0685 36.108V38.0511Z" fill="#012169"/>
<path d="M39.5172 40.3184L39.0314 42.0996H37.4121L39.6792 34.9746H41.7843L44.0513 42.0996H42.2701L41.7843 40.3184H39.5172ZM41.4604 39.0229L40.9746 37.5655C40.8127 37.0797 40.6507 36.5939 40.6507 36.1081C40.4888 36.5939 40.4888 37.0797 40.3269 37.5655L39.8411 39.0229H41.4604Z" fill="#012169"/>
<path d="M45.9941 42.0996V34.9746H47.9373L49.3947 37.5655C49.8805 38.3752 50.2044 39.1848 50.5282 39.9945C50.3663 39.0229 50.3663 38.0513 50.3663 36.9178V34.9746H51.8237V42.0996H50.0424L48.585 39.3468C48.0993 38.5371 47.6135 37.7274 47.2896 36.7559C47.2896 37.7274 47.2896 38.699 47.2896 39.8326V41.9377H45.9941V42.0996Z" fill="#012169"/>
<path d="M54.4139 40.4803C54.8997 40.6422 55.5474 40.9661 56.1951 40.9661C57.0048 40.9661 57.3287 40.6422 57.3287 40.1564C57.3287 39.6706 57.0048 39.5087 56.1951 39.1848C55.0616 38.699 54.252 38.0513 54.252 37.0797C54.252 35.7843 55.2235 34.9746 57.0048 34.9746C57.8144 34.9746 58.4622 35.1365 58.786 35.2985L58.4622 36.5939C58.1383 36.432 57.6525 36.2701 57.0048 36.2701C56.3571 36.2701 56.0332 36.5939 56.0332 36.9178C56.0332 37.4036 56.519 37.5655 57.3287 37.8894C58.6241 38.3752 59.2718 39.0229 59.2718 39.9945C59.2718 41.128 58.3002 42.2615 56.3571 42.2615C55.5474 42.2615 54.7377 42.0996 54.252 41.7757L54.4139 40.4803Z" fill="#012169"/>
<path d="M61.2148 34.9746H65.587V36.2701H62.8342V37.8894H65.4251V39.1848H62.8342V42.0996H61.2148V34.9746Z" fill="#012169"/>
<path d="M72.2278 39.0229H69.6369V40.8042H72.5517V42.0996H68.0176V34.9746H72.3897V36.2701H69.6369V37.7274H72.2278V39.0229Z" fill="#012169"/>
<path d="M74.6562 34.9744C75.142 34.8125 75.9517 34.8125 76.7614 34.8125C77.8949 34.8125 78.5426 34.9744 79.0284 35.2983C79.5142 35.6222 79.6761 36.108 79.6761 36.7557C79.6761 37.7273 79.0284 38.375 78.3807 38.5369C78.8665 38.6989 79.1903 39.1847 79.3523 39.8324C79.5142 40.642 79.8381 41.6136 80 41.9375H78.3807C78.2187 41.7756 78.0568 41.1278 77.8949 40.3182C77.733 39.3466 77.4091 39.1847 76.7614 39.1847H76.2756V41.9375H74.6562V34.9744ZM76.2756 38.0511H76.9233C77.733 38.0511 78.2187 37.5653 78.2187 37.0795C78.2187 36.4318 77.733 36.108 77.0852 36.108C76.7614 36.108 76.4375 36.108 76.2756 36.108V38.0511Z" fill="#012169"/>
<path d="M23 17.3239C23.8097 17.1619 25.429 17 26.8864 17C28.6676 17 29.9631 17.1619 30.9347 17.8097C31.9062 18.2955 32.554 19.267 32.554 20.4006C32.554 21.5341 31.9062 22.6676 30.2869 23.3153C31.9062 23.8011 33.0398 24.9347 33.0398 26.554C32.8778 28.0114 32.392 28.821 31.5824 29.6307C30.6108 30.2784 28.9915 30.7642 26.2386 30.7642C24.7812 30.7642 23.6477 30.6023 23 30.6023V17.3239ZM25.9148 22.5057H26.8864C28.5057 22.5057 29.3153 21.858 29.3153 20.8864C29.3153 19.9148 28.5057 19.267 27.2102 19.267C26.5625 19.267 26.2386 19.267 25.9148 19.267V22.5057ZM25.9148 28.4972C26.2386 28.4972 26.5625 28.4972 27.0483 28.4972C28.5057 28.4972 29.6392 28.0114 29.6392 26.554C29.8011 25.2585 28.5057 24.7727 27.0483 24.7727H25.9148V28.4972Z" fill="#012169"/>
<path d="M38.0598 27.2019L37.0882 30.6024H33.8496L37.8979 17.1621H41.9462L46.1564 30.6024H42.9178L41.9462 27.2019H38.0598ZM41.4604 24.9348L40.6507 22.0201C40.4888 21.2104 40.1649 20.2388 40.003 19.4292C39.8411 20.2388 39.6792 21.2104 39.3553 22.0201L38.5456 24.9348H41.4604Z" fill="#012169"/>
<path d="M48.0996 30.6024V17.1621H51.6621L54.4149 22.0201C55.2246 23.4774 56.0343 25.0968 56.682 26.7161C56.5201 24.9348 56.3581 23.1536 56.3581 21.0485V17.1621H59.111V30.6024H55.8723L53.1195 25.4206C52.3098 23.9632 51.5002 22.182 50.8524 20.7246C50.8524 22.5059 51.0144 24.449 51.0144 26.5541V30.6024H48.0996Z" fill="#012169"/>
<path d="M61.8633 17.1621H64.94V23.1536C65.2638 22.6678 65.5877 22.182 65.9116 21.6962L68.9883 17.1621H72.7127L68.1786 22.8297L72.8746 30.6024H69.3121L66.0735 24.7729L64.94 26.2303V30.6024H61.8633V17.1621Z" fill="#012169"/>
</svg>
