<svg width="265" height="39" viewBox="0 0 265 39" fill="none" xmlns="http://www.w3.org/2000/svg">
<path d="M243.284 38.7566C229.827 38.7566 222.968 29.2617 216.926 20.8719C211.027 12.7792 205.48 5.0827 194.636 5.07508C183.747 5.0827 178.222 12.7258 172.355 20.8795C166.327 29.2694 159.423 38.7794 146.004 38.7413C132.508 38.7794 125.635 29.2237 119.6 20.8414C113.755 12.7715 108.192 5.09033 97.3182 5.11319C86.4441 5.07509 80.927 12.7411 75.0747 20.8795C68.9556 29.2541 62.1355 38.7871 48.6781 38.7871C35.2208 38.7871 28.393 29.2617 22.2816 20.8795C16.4597 12.7868 10.8893 5.06746 0 5.07508L0.0304741 1.67715e-06C13.4878 1.67715e-06 20.3156 9.5253 26.427 17.9076C32.2565 26.0079 37.7964 33.6967 48.6781 33.6663C59.5446 33.712 65.0921 26.0155 70.9216 17.9C77.0026 9.48721 83.8608 -0.00761584 97.3105 4.58404e-06C110.768 4.58404e-06 117.641 9.47959 123.715 17.9C129.567 26.0384 135.107 33.712 145.996 33.7044C156.832 33.7196 162.387 26.0155 168.247 17.9304C174.321 9.52531 181.194 0.0457235 194.636 0.0304834C208.056 -0.00761802 214.952 9.5253 221.002 17.9076C226.885 26.0612 232.395 33.7196 243.292 33.7044C251.476 33.7501 256.635 29.3379 261.192 23.7447L264.788 27.3414C259.675 33.4605 253.297 38.7566 243.292 38.749" fill="#C4161C"/>
</svg>
