<svg width="29" height="30" viewBox="0 0 29 30" fill="none" xmlns="http://www.w3.org/2000/svg">
<rect width="29" height="30" rx="5" fill="#C4161C"/>
<path d="M5.95508 9.12378C6.25534 9.07308 6.46911 9.00547 6.68288 9.00447C11.8998 8.99851 17.1167 8.99851 22.3335 9.00447C22.5573 9.00447 22.781 9.07606 23.0713 9.12577C22.9261 9.28187 22.8466 9.37334 22.7611 9.45885C20.2337 11.9942 17.7062 14.5306 15.1778 17.0649C14.6658 17.578 14.3745 17.581 13.8724 17.0789C11.336 14.5345 8.79867 11.9902 6.26231 9.44592C6.18575 9.36937 6.11118 9.28784 5.95508 9.12378Z" fill="white"/>
<path d="M17.2519 16.5656C19.1818 18.4726 21.0808 20.3488 23.0216 22.2667C22.7731 22.3065 22.5474 22.3741 22.3217 22.3741C17.1187 22.38 11.9148 22.38 6.71178 22.3741C6.48608 22.3741 6.26039 22.3055 6.00586 22.2637C7.95163 20.3408 9.85067 18.4646 11.7815 16.5566C12.1872 16.9633 12.6555 17.4336 13.1248 17.9039C14.0236 18.8037 15.0149 18.8027 15.9157 17.9009C16.379 17.4376 16.8433 16.9742 17.2519 16.5656Z" fill="white"/>
<path d="M5.12229 21.3555C5.0865 21.1606 5.00597 20.9269 5.00597 20.6923C4.99801 17.3615 4.99801 14.0307 5.00597 10.699C5.00696 10.4604 5.08352 10.2227 5.12229 9.99902C7.05414 11.912 8.95915 13.7991 10.8552 15.6763C8.95418 17.5604 7.04917 19.4475 5.12229 21.3555Z" fill="white"/>
<path d="M18.1758 15.661C20.0639 13.7908 21.9629 11.9107 23.9017 9.98975C23.9455 10.2115 24.029 10.4411 24.029 10.6708C24.0379 14.0135 24.0369 17.3572 24.03 20.6999C24.029 20.9286 23.9564 21.1563 23.9216 21.3541C22.0027 19.4531 20.0997 17.568 18.1758 15.661Z" fill="white"/>
</svg>
