<svg width="138" height="64" viewBox="0 0 138 64" fill="none" xmlns="http://www.w3.org/2000/svg">
<path d="M7.89417 3.96025C7.89417 6.11382 6.12378 7.85546 3.95434 7.85546C1.78489 7.85546 0 6.11382 0 3.96025C0 1.80668 1.7341 0 3.95434 0C6.17457 0 7.89417 1.77055 7.89417 3.96025Z" fill="#C4161C"/>
<path d="M40.3561 3.96025C40.3561 6.11382 38.5857 7.85546 36.4017 7.85546C34.2178 7.85546 32.4329 6.11382 32.4329 3.96025C32.4329 1.80668 34.2032 0 36.4017 0C38.6002 0 40.3561 1.77055 40.3561 3.96025Z" fill="#C4161C"/>
<path d="M72.7962 3.96025C72.7962 6.11382 71.0259 7.85546 68.8564 7.85546C66.687 7.85546 64.9238 6.11382 64.9238 3.96025C64.9238 1.80668 66.6652 0 68.8564 0C71.0476 0 72.7962 1.77055 72.7962 3.96025Z" fill="#C4161C"/>
<path d="M105.251 3.96025C105.251 6.11382 103.48 7.85546 101.318 7.85546C99.1559 7.85546 97.3638 6.11382 97.3638 3.96025C97.3638 1.80668 99.1196 0 101.318 0C103.517 0 105.251 1.77055 105.251 3.96025Z" fill="#C4161C"/>
<path d="M137.713 3.96025C137.713 6.11382 135.942 7.85546 133.758 7.85546C131.574 7.85546 129.789 6.11382 129.789 3.96025C129.789 1.80668 131.56 0 133.758 0C135.957 0 137.713 1.77055 137.713 3.96025Z" fill="#C4161C"/>
<path d="M7.89417 32.1009C7.89417 34.2544 6.12378 36.0178 3.95434 36.0178C1.78489 36.0178 0 34.2544 0 32.1009C0 29.9473 1.7341 28.1406 3.95434 28.1406C6.17457 28.1406 7.89417 29.9039 7.89417 32.1009Z" fill="#C4161C"/>
<path d="M40.3561 32.1009C40.3561 34.2544 38.5857 36.0178 36.4017 36.0178C34.2178 36.0178 32.4329 34.2544 32.4329 32.1009C32.4329 29.9473 34.2032 28.1406 36.4017 28.1406C38.6002 28.1406 40.3561 29.9039 40.3561 32.1009Z" fill="#C4161C"/>
<path d="M72.7962 32.1009C72.7962 34.2544 71.0259 36.0178 68.8564 36.0178C66.687 36.0178 64.9238 34.2544 64.9238 32.1009C64.9238 29.9473 66.6652 28.1406 68.8564 28.1406C71.0476 28.1406 72.7962 29.9039 72.7962 32.1009Z" fill="#C4161C"/>
<path d="M105.251 32.1009C105.251 34.2544 103.48 36.0178 101.318 36.0178C99.1559 36.0178 97.3638 34.2544 97.3638 32.1009C97.3638 29.9473 99.1196 28.1406 101.318 28.1406C103.517 28.1406 105.251 29.9039 105.251 32.1009Z" fill="#C4161C"/>
<path d="M137.713 32.1009C137.713 34.2544 135.942 36.0178 133.758 36.0178C131.574 36.0178 129.789 34.2544 129.789 32.1009C129.789 29.9473 131.56 28.1406 133.758 28.1406C135.957 28.1406 137.713 29.9039 137.713 32.1009Z" fill="#C4161C"/>
<path d="M7.89417 31.906C7.89417 34.0957 6.12378 35.859 3.95434 35.859C1.78489 35.859 0 34.0957 0 31.906C0 29.7163 1.7341 27.9746 3.95434 27.9746C6.17457 27.9746 7.89417 29.7379 7.89417 31.906Z" fill="#C4161C"/>
<path d="M40.3561 31.906C40.3561 34.0957 38.5857 35.859 36.4017 35.859C34.2178 35.859 32.4329 34.0957 32.4329 31.906C32.4329 29.7163 34.2032 27.9746 36.4017 27.9746C38.6002 27.9746 40.3561 29.7379 40.3561 31.906Z" fill="#C4161C"/>
<path d="M72.7962 31.906C72.7962 34.0957 71.0259 35.859 68.8564 35.859C66.687 35.859 64.9238 34.0957 64.9238 31.906C64.9238 29.7163 66.6652 27.9746 68.8564 27.9746C71.0476 27.9746 72.7962 29.7379 72.7962 31.906Z" fill="#C4161C"/>
<path d="M105.251 31.906C105.251 34.0957 103.48 35.859 101.318 35.859C99.1559 35.859 97.3638 34.0957 97.3638 31.906C97.3638 29.7163 99.1196 27.9746 101.318 27.9746C103.517 27.9746 105.251 29.7379 105.251 31.906Z" fill="#C4161C"/>
<path d="M137.713 31.906C137.713 34.0957 135.942 35.859 133.758 35.859C131.574 35.859 129.789 34.0957 129.789 31.906C129.789 29.7163 131.56 27.9746 133.758 27.9746C135.957 27.9746 137.713 29.7379 137.713 31.906Z" fill="#C4161C"/>
<path d="M7.89417 60.0407C7.89417 62.2304 6.12378 63.9937 3.95434 63.9937C1.78489 63.9937 0 62.2304 0 60.0407C0 57.851 1.7341 56.1094 3.95434 56.1094C6.17457 56.1094 7.89417 57.8727 7.89417 60.0407Z" fill="#C4161C"/>
<path d="M40.3561 60.0407C40.3561 62.2304 38.5857 63.9937 36.4017 63.9937C34.2178 63.9937 32.4329 62.2304 32.4329 60.0407C32.4329 57.851 34.2032 56.1094 36.4017 56.1094C38.6002 56.1094 40.3561 57.8727 40.3561 60.0407Z" fill="#C4161C"/>
<path d="M72.7962 60.0407C72.7962 62.2304 71.0259 63.9937 68.8564 63.9937C66.687 63.9937 64.9238 62.2304 64.9238 60.0407C64.9238 57.851 66.6652 56.1094 68.8564 56.1094C71.0476 56.1094 72.7962 57.8727 72.7962 60.0407Z" fill="#C4161C"/>
<path d="M105.251 60.0407C105.251 62.2304 103.48 63.9937 101.318 63.9937C99.1559 63.9937 97.3638 62.2304 97.3638 60.0407C97.3638 57.851 99.1196 56.1094 101.318 56.1094C103.517 56.1094 105.251 57.8727 105.251 60.0407Z" fill="#C4161C"/>
<path d="M137.713 60.0407C137.713 62.2304 135.942 63.9937 133.758 63.9937C131.574 63.9937 129.789 62.2304 129.789 60.0407C129.789 57.851 131.56 56.1094 133.758 56.1094C135.957 56.1094 137.713 57.8727 137.713 60.0407Z" fill="#C4161C"/>
</svg>
