<svg width="138" height="64" viewBox="0 0 138 64" fill="none" xmlns="http://www.w3.org/2000/svg">
<path d="M8.18128 3.96025C8.18128 6.11382 6.41089 7.85546 4.24144 7.85546C2.072 7.85546 0.287109 6.11382 0.287109 3.96025C0.287109 1.80668 2.02121 0 4.24144 0C6.46168 0 8.18128 1.77055 8.18128 3.96025Z" fill="#C4161C"/>
<path d="M40.6432 3.96025C40.6432 6.11382 38.8728 7.85546 36.6888 7.85546C34.5049 7.85546 32.72 6.11382 32.72 3.96025C32.72 1.80668 34.4904 0 36.6888 0C38.8873 0 40.6432 1.77055 40.6432 3.96025Z" fill="#C4161C"/>
<path d="M73.0833 3.96025C73.0833 6.11382 71.313 7.85546 69.1435 7.85546C66.9741 7.85546 65.2109 6.11382 65.2109 3.96025C65.2109 1.80668 66.9523 0 69.1435 0C71.3347 0 73.0833 1.77055 73.0833 3.96025Z" fill="#C4161C"/>
<path d="M105.538 3.96025C105.538 6.11382 103.767 7.85546 101.605 7.85546C99.443 7.85546 97.6509 6.11382 97.6509 3.96025C97.6509 1.80668 99.4068 0 101.605 0C103.804 0 105.538 1.77055 105.538 3.96025Z" fill="#C4161C"/>
<path d="M138 3.96025C138 6.11382 136.229 7.85546 134.045 7.85546C131.861 7.85546 130.076 6.11382 130.076 3.96025C130.076 1.80668 131.847 0 134.045 0C136.244 0 138 1.77055 138 3.96025Z" fill="#C4161C"/>
<path d="M8.18128 32.1014C8.18128 34.2549 6.41089 36.0183 4.24144 36.0183C2.072 36.0183 0.287109 34.2549 0.287109 32.1014C0.287109 29.9478 2.02121 28.1411 4.24144 28.1411C6.46168 28.1411 8.18128 29.9044 8.18128 32.1014Z" fill="#C4161C"/>
<path d="M40.6432 32.1014C40.6432 34.2549 38.8728 36.0183 36.6888 36.0183C34.5049 36.0183 32.72 34.2549 32.72 32.1014C32.72 29.9478 34.4904 28.1411 36.6888 28.1411C38.8873 28.1411 40.6432 29.9044 40.6432 32.1014Z" fill="#C4161C"/>
<path d="M73.0833 32.1014C73.0833 34.2549 71.313 36.0183 69.1435 36.0183C66.9741 36.0183 65.2109 34.2549 65.2109 32.1014C65.2109 29.9478 66.9523 28.1411 69.1435 28.1411C71.3347 28.1411 73.0833 29.9044 73.0833 32.1014Z" fill="#C4161C"/>
<path d="M105.538 32.1014C105.538 34.2549 103.767 36.0183 101.605 36.0183C99.443 36.0183 97.6509 34.2549 97.6509 32.1014C97.6509 29.9478 99.4068 28.1411 101.605 28.1411C103.804 28.1411 105.538 29.9044 105.538 32.1014Z" fill="#C4161C"/>
<path d="M138 32.1014C138 34.2549 136.229 36.0183 134.045 36.0183C131.861 36.0183 130.076 34.2549 130.076 32.1014C130.076 29.9478 131.847 28.1411 134.045 28.1411C136.244 28.1411 138 29.9044 138 32.1014Z" fill="#C4161C"/>
<path d="M8.18128 31.906C8.18128 34.0957 6.41089 35.859 4.24144 35.859C2.072 35.859 0.287109 34.0957 0.287109 31.906C0.287109 29.7163 2.02121 27.9746 4.24144 27.9746C6.46168 27.9746 8.18128 29.7379 8.18128 31.906Z" fill="#C4161C"/>
<path d="M40.6432 31.906C40.6432 34.0957 38.8728 35.859 36.6888 35.859C34.5049 35.859 32.72 34.0957 32.72 31.906C32.72 29.7163 34.4904 27.9746 36.6888 27.9746C38.8873 27.9746 40.6432 29.7379 40.6432 31.906Z" fill="#C4161C"/>
<path d="M73.0833 31.906C73.0833 34.0957 71.313 35.859 69.1435 35.859C66.9741 35.859 65.2109 34.0957 65.2109 31.906C65.2109 29.7163 66.9523 27.9746 69.1435 27.9746C71.3347 27.9746 73.0833 29.7379 73.0833 31.906Z" fill="#C4161C"/>
<path d="M105.538 31.906C105.538 34.0957 103.767 35.859 101.605 35.859C99.443 35.859 97.6509 34.0957 97.6509 31.906C97.6509 29.7163 99.4068 27.9746 101.605 27.9746C103.804 27.9746 105.538 29.7379 105.538 31.906Z" fill="#C4161C"/>
<path d="M138 31.906C138 34.0957 136.229 35.859 134.045 35.859C131.861 35.859 130.076 34.0957 130.076 31.906C130.076 29.7163 131.847 27.9746 134.045 27.9746C136.244 27.9746 138 29.7379 138 31.906Z" fill="#C4161C"/>
<path d="M8.18128 60.0397C8.18128 62.2294 6.41089 63.9928 4.24144 63.9928C2.072 63.9928 0.287109 62.2294 0.287109 60.0397C0.287109 57.85 2.02121 56.1084 4.24144 56.1084C6.46168 56.1084 8.18128 57.8717 8.18128 60.0397Z" fill="#C4161C"/>
<path d="M40.6432 60.0397C40.6432 62.2294 38.8728 63.9928 36.6888 63.9928C34.5049 63.9928 32.72 62.2294 32.72 60.0397C32.72 57.85 34.4904 56.1084 36.6888 56.1084C38.8873 56.1084 40.6432 57.8717 40.6432 60.0397Z" fill="#C4161C"/>
<path d="M73.0833 60.0397C73.0833 62.2294 71.313 63.9928 69.1435 63.9928C66.9741 63.9928 65.2109 62.2294 65.2109 60.0397C65.2109 57.85 66.9523 56.1084 69.1435 56.1084C71.3347 56.1084 73.0833 57.8717 73.0833 60.0397Z" fill="#C4161C"/>
<path d="M105.538 60.0397C105.538 62.2294 103.767 63.9928 101.605 63.9928C99.443 63.9928 97.6509 62.2294 97.6509 60.0397C97.6509 57.85 99.4068 56.1084 101.605 56.1084C103.804 56.1084 105.538 57.8717 105.538 60.0397Z" fill="#C4161C"/>
<path d="M138 60.0397C138 62.2294 136.229 63.9928 134.045 63.9928C131.861 63.9928 130.076 62.2294 130.076 60.0397C130.076 57.85 131.847 56.1084 134.045 56.1084C136.244 56.1084 138 57.8717 138 60.0397Z" fill="#C4161C"/>
</svg>
