<svg width="28" height="28" viewBox="0 0 28 28" fill="none" xmlns="http://www.w3.org/2000/svg">
<path d="M27.9996 8.96912C27.8235 9.19607 27.6666 9.44161 27.4692 9.64723C25.0777 12.1393 22.6792 14.6242 20.2866 17.1147C20.0312 17.3804 19.7513 17.5576 19.3701 17.4805C18.9228 17.3897 18.6652 17.0365 18.6635 16.5109C18.6603 15.3992 18.6624 14.2874 18.6624 13.1756C18.6624 13.0766 18.6624 12.9776 18.6624 12.8934C18.628 12.8683 18.6143 12.8497 18.5996 12.8486C15.6394 12.6566 12.9581 13.3293 10.7302 15.3975C9.89403 16.1741 9.22685 17.078 8.70241 18.0908C8.43882 18.5994 7.95758 18.7815 7.49712 18.5589C7.204 18.4167 7.01424 18.1789 7.00822 17.854C6.97541 16.1314 6.93166 14.4022 7.49439 12.7398C8.9474 8.44577 11.8852 5.7984 16.3317 4.86983C16.9956 4.73092 17.6879 4.72819 18.3671 4.66311C18.4552 4.65491 18.5443 4.65327 18.663 4.64725C18.663 4.5346 18.663 4.43671 18.663 4.33937C18.663 3.29158 18.6805 2.24269 18.6559 1.19545C18.6433 0.652409 18.7882 0.235699 19.305 0C19.451 0 19.5965 0 19.7425 0C19.9503 0.156403 20.1833 0.288744 20.3621 0.473037C22.7432 2.93447 25.1182 5.40138 27.4894 7.87266C27.6808 8.07226 27.8312 8.3107 28.0002 8.53108C27.9996 8.67764 27.9996 8.82311 27.9996 8.96912Z" fill="#C4161C"/>
<path d="M0 7.71132C0.139997 7.31102 0.226949 6.88228 0.429288 6.51642C1.08443 5.32973 2.11636 4.70193 3.47368 4.66966C4.6303 4.64232 5.78801 4.65654 6.94518 4.66584C7.67141 4.6713 8.17179 5.17551 8.15976 5.86073C8.14828 6.52627 7.63696 6.99876 6.91893 6.99985C5.81645 7.00204 4.71397 6.99931 3.61149 7.00095C2.80705 7.00204 2.33894 7.46742 2.33894 8.27459C2.3373 13.6503 2.3373 19.0265 2.33894 24.4022C2.33894 25.1951 2.80377 25.6616 3.59399 25.6616C10.5277 25.6632 17.4619 25.6632 24.3956 25.6616C25.2006 25.6616 25.6605 25.1968 25.6611 24.3841C25.6632 21.3775 25.6605 18.3703 25.6649 15.3636C25.6649 15.1744 25.6797 14.9775 25.7332 14.7981C25.8689 14.341 26.2993 14.0243 26.7717 14.0024C27.2541 13.98 27.6927 14.2464 27.8923 14.6833C27.9295 14.7648 27.9639 14.8479 28 14.9299C28 18.2658 28 21.6017 28 24.9375C27.9825 24.9879 27.959 25.0365 27.9486 25.0879C27.6577 26.5109 26.8117 27.4329 25.4341 27.8726C25.2717 27.9245 25.1033 27.9579 24.9376 28C17.6462 28 10.3543 28 3.06299 28C3.02197 27.9836 2.9826 27.9595 2.93994 27.9519C1.86207 27.7621 1.02482 27.2032 0.492178 26.2528C0.265776 25.8492 0.160778 25.3778 0.00109375 24.937C2.50579e-08 19.1955 0 13.4534 0 7.71132Z" fill="#0074BD"/>
</svg>
