<svg width="29" height="30" viewBox="0 0 29 30" fill="none" xmlns="http://www.w3.org/2000/svg">
<rect width="29" height="30" rx="5" fill="#0074BD"/>
<path d="M5 14.7993C5.08869 14.7213 5.18146 14.6472 5.26607 14.5647C6.07429 13.7751 6.88104 12.9837 7.70856 12.1733C9.07304 13.6945 10.432 15.2099 11.8031 16.7385C15.0312 13.6088 18.2511 10.4872 21.4829 7.354C21.7649 7.67237 22.0366 7.9791 22.3078 8.28621C22.8277 8.87524 23.3469 9.46466 23.8672 10.0529C23.9083 10.0994 23.9555 10.1405 24 10.184C24 10.1968 24 10.21 24 10.2228C23.4901 10.7106 22.9777 11.1957 22.4704 11.687C18.8835 15.1607 15.2973 18.6351 11.7107 22.1096C11.6836 22.1355 11.6547 22.1596 11.6131 22.1964C11.5397 22.1162 11.4673 22.0382 11.3964 21.9595C9.2957 19.6158 7.19535 17.2721 5.09463 14.9288C5.06568 14.8962 5.03191 14.8687 5.00037 14.8384C5 14.8252 5 14.8124 5 14.7993Z" fill="white"/>
</svg>
