<svg width="265" height="40" viewBox="0 0 265 40" fill="none" xmlns="http://www.w3.org/2000/svg">
<path d="M243.806 39.4646C230.349 39.4646 223.491 29.9698 217.448 21.5799C211.55 13.4872 206.002 5.79071 195.159 5.78309C184.269 5.79071 178.745 13.4338 172.877 21.5875C166.85 29.9774 159.946 39.4875 146.526 39.4494C133.031 39.4875 126.157 29.9317 120.122 21.5494C114.278 13.4795 108.715 5.79834 97.8406 5.8212C86.9665 5.7831 81.4495 13.4491 75.5971 21.5875C69.4781 29.9621 62.6579 39.4951 49.2006 39.4951C35.7432 39.4951 28.9155 29.9698 22.8041 21.5875C16.9822 13.4948 11.4118 5.77547 0.522461 5.78309L0.552935 0.708009C14.0103 0.708009 20.838 10.2333 26.9495 18.6156C32.779 26.7159 38.3189 34.4047 49.2006 34.3743C60.0671 34.42 65.6146 26.7235 71.4441 18.608C77.525 10.1952 84.3833 0.700392 97.833 0.708012C111.29 0.708012 118.164 10.1876 124.237 18.608C130.09 26.7464 135.629 34.42 146.519 34.4124C157.355 34.4276 162.91 26.7235 168.77 18.6385C174.843 10.2333 181.717 0.753731 195.159 0.738491C208.578 0.70039 215.474 10.2333 221.525 18.6156C227.408 26.7692 232.917 34.4276 243.814 34.4124C251.998 34.4581 257.157 30.046 261.714 24.4527L265.311 28.0494C260.198 34.1685 253.819 39.4646 243.814 39.457" fill="white"/>
</svg>
