<svg width="32" height="31" viewBox="0 0 32 31" fill="none" xmlns="http://www.w3.org/2000/svg">
<path d="M15.1437 30.3072C12.4081 30.3072 9.67146 30.3082 6.93586 30.3072C2.94052 30.3051 0.00252202 27.3755 0.00146784 23.3918C0.000413659 17.8679 -0.00169367 12.345 0.00252305 6.82113C0.00463141 3.48044 2.23317 0.765926 5.50112 0.11866C5.84795 0.0501379 6.20531 0.0100771 6.55847 0.00796876C9.41318 -0.00151885 12.2668 -0.00151756 15.1216 0.00269915C15.9754 0.00375333 16.6807 0.587769 16.8114 1.37313C16.9506 2.20593 16.5131 2.99024 15.7298 3.25379C15.4747 3.33918 15.189 3.36764 14.9171 3.36869C12.2205 3.37713 9.52387 3.36553 6.82833 3.37712C5.09737 3.3845 3.76911 4.45871 3.43599 6.09375C3.39909 6.27296 3.38433 6.45955 3.38433 6.64192C3.38117 12.3102 3.37063 17.9775 3.38855 23.6458C3.39382 25.2619 4.52179 26.5585 6.10517 26.8727C6.36028 26.9233 6.62804 26.9296 6.89053 26.9296C12.4018 26.9328 17.913 26.9349 23.4243 26.9307C25.1985 26.9296 26.5288 25.887 26.8704 24.2351C26.9336 23.9294 26.9368 23.6079 26.9368 23.2937C26.9421 20.7163 26.9368 18.1388 26.941 15.5613C26.9431 14.4755 27.6399 13.7281 28.6309 13.7281C29.5311 13.7281 30.2986 14.4249 30.3039 15.3284C30.3197 18.2084 30.3755 21.0905 30.287 23.9674C30.1805 27.4293 27.213 30.2598 23.7469 30.2977C20.8795 30.3283 18.0121 30.304 15.1448 30.304C15.1437 30.3051 15.1437 30.3061 15.1437 30.3072Z" fill="#0074BD"/>
<path d="M15.1947 16.1663C15.3296 16.0081 15.4245 15.8816 15.5362 15.7699C20.0154 11.2833 24.4989 6.80093 28.976 2.31223C29.4103 1.87686 29.8984 1.60699 30.5214 1.69659C31.2024 1.79463 31.6884 2.16992 31.9045 2.83194C32.1301 3.52137 31.9509 4.12437 31.4385 4.63459C29.735 6.33498 28.0335 8.03853 26.3321 9.73998C23.0578 13.0132 19.7814 16.2843 16.5124 19.5628C15.9758 20.1015 15.3728 20.3714 14.6286 20.1163C14.3777 20.0298 14.1279 19.8696 13.9381 19.6809C11.7064 17.4671 9.48209 15.2449 7.26515 13.0164C6.5483 12.2964 6.54831 11.2548 7.23458 10.5833C7.92085 9.91181 8.95078 9.93395 9.66973 10.6508C11.3923 12.3691 13.1085 14.0948 14.8278 15.8163C14.9301 15.9175 15.0355 16.0134 15.1947 16.1663Z" fill="#0074BD"/>
</svg>
