<svg width="59" height="59" viewBox="0 0 59 59" fill="none" xmlns="http://www.w3.org/2000/svg">
<path d="M0 10C0 4.47715 4.47715 0 10 0H49C54.5228 0 59 4.47715 59 10V49C59 54.5228 54.5228 59 49 59H10C4.47715 59 0 54.5228 0 49V10Z" fill="white"/>
<path d="M30.2746 47.5491C20.7392 47.5455 12.9874 39.7738 13 30.2312C13.0127 20.7373 20.7789 12.9964 30.2926 13C39.828 13.0036 47.5816 20.7735 47.5672 30.3161C47.5527 39.8135 39.7865 47.5527 30.2746 47.5491ZM28.834 26.2957C28.834 27.7562 28.8448 29.2167 28.8285 30.6771C28.8213 31.3017 29.0289 31.791 29.4766 32.2351C31.7458 34.479 33.9952 36.7428 36.2536 38.9976C36.3962 39.1402 36.5424 39.2846 36.7103 39.3947C37.2718 39.763 38.0372 39.6709 38.5047 39.1961C38.9886 38.7051 39.0662 37.9776 38.6726 37.4071C38.5336 37.2049 38.3513 37.0334 38.178 36.8583C36.1778 34.8545 34.1631 32.8651 32.1845 30.8378C31.9372 30.585 31.7567 30.1518 31.7531 29.798C31.717 27.1695 31.7386 24.541 31.7314 21.9126C31.7278 20.8782 31.1736 20.221 30.3161 20.1994C29.4405 20.1759 28.843 20.8583 28.8376 21.9162C28.8285 23.3748 28.834 24.8353 28.834 26.2957Z" fill="#0074BD"/>
</svg>
